<mxfile host="app.diagrams.net" agent="Mozilla/5.0 (Windows NT 10.0; Win64; x64) AppleWebKit/537.36 (KHTML, like Gecko) Chrome/130.0.0.0 Safari/537.36" version="24.8.3">
  <diagram name="Page-1" id="0XnwhzPF7pDZy2JTiRfj">
    <mxGraphModel dx="1235" dy="811" grid="1" gridSize="10" guides="1" tooltips="1" connect="1" arrows="1" fold="1" page="1" pageScale="1" pageWidth="850" pageHeight="1100" math="0" shadow="0">
      <root>
        <mxCell id="0" />
        <mxCell id="1" parent="0" />
        <mxCell id="nhPQqnQUPSQ_pBwds0je-46" value="&lt;div&gt;&lt;br&gt;&lt;/div&gt;&lt;div&gt;&lt;br&gt;&lt;/div&gt;&lt;div&gt;&lt;br&gt;&lt;/div&gt;&lt;div&gt;&lt;br&gt;&lt;/div&gt;&lt;div&gt;&lt;br&gt;&lt;/div&gt;&lt;div&gt;&lt;br&gt;&lt;/div&gt;&lt;div&gt;&lt;br&gt;&lt;/div&gt;&lt;div&gt;&lt;br&gt;&lt;/div&gt;&lt;div&gt;&lt;br&gt;&lt;/div&gt;&lt;div&gt;&lt;br&gt;&lt;/div&gt;&lt;div style=&quot;text-align: right;&quot;&gt;&lt;font style=&quot;font-size: 8px;&quot;&gt;EF-?&lt;/font&gt;&lt;/div&gt;" style="whiteSpace=wrap;html=1;aspect=fixed;" vertex="1" parent="1">
          <mxGeometry x="620" y="450" width="160" height="160" as="geometry" />
        </mxCell>
        <mxCell id="nhPQqnQUPSQ_pBwds0je-45" value="&lt;div&gt;&lt;br&gt;&lt;/div&gt;&lt;div&gt;&lt;br&gt;&lt;/div&gt;&lt;div&gt;&lt;br&gt;&lt;/div&gt;&lt;div&gt;&lt;br&gt;&lt;/div&gt;&lt;div&gt;&lt;br&gt;&lt;/div&gt;&lt;div&gt;&lt;br&gt;&lt;/div&gt;&lt;div&gt;&lt;br&gt;&lt;/div&gt;&lt;div&gt;&lt;br&gt;&lt;/div&gt;&lt;div&gt;&lt;br&gt;&lt;/div&gt;&lt;div&gt;&lt;br&gt;&lt;/div&gt;&lt;div style=&quot;text-align: right;&quot;&gt;&lt;font style=&quot;font-size: 8px;&quot;&gt;EF-05&lt;/font&gt;&lt;/div&gt;" style="whiteSpace=wrap;html=1;aspect=fixed;" vertex="1" parent="1">
          <mxGeometry x="620" y="680" width="160" height="160" as="geometry" />
        </mxCell>
        <mxCell id="nhPQqnQUPSQ_pBwds0je-44" value="&lt;div&gt;&lt;br&gt;&lt;/div&gt;&lt;div&gt;&lt;br&gt;&lt;/div&gt;&lt;div&gt;&lt;br&gt;&lt;/div&gt;&lt;div&gt;&lt;br&gt;&lt;/div&gt;&lt;div&gt;&lt;br&gt;&lt;/div&gt;&lt;div&gt;&lt;br&gt;&lt;/div&gt;&lt;div&gt;&lt;br&gt;&lt;/div&gt;&lt;div&gt;&lt;br&gt;&lt;/div&gt;&lt;div&gt;&lt;br&gt;&lt;/div&gt;&lt;div&gt;&lt;br&gt;&lt;/div&gt;&lt;div style=&quot;text-align: right;&quot;&gt;&lt;font style=&quot;font-size: 8px;&quot;&gt;SA-04&lt;/font&gt;&lt;/div&gt;" style="whiteSpace=wrap;html=1;aspect=fixed;" vertex="1" parent="1">
          <mxGeometry x="280" y="450" width="160" height="160" as="geometry" />
        </mxCell>
        <mxCell id="nhPQqnQUPSQ_pBwds0je-43" value="&lt;div&gt;&lt;br&gt;&lt;/div&gt;&lt;div&gt;&lt;br&gt;&lt;/div&gt;&lt;div&gt;&lt;br&gt;&lt;/div&gt;&lt;div&gt;&lt;br&gt;&lt;/div&gt;&lt;div&gt;&lt;br&gt;&lt;/div&gt;&lt;div&gt;&lt;br&gt;&lt;/div&gt;&lt;div&gt;&lt;br&gt;&lt;/div&gt;&lt;div&gt;&lt;br&gt;&lt;/div&gt;&lt;div&gt;&lt;br&gt;&lt;/div&gt;&lt;div&gt;&lt;br&gt;&lt;/div&gt;&lt;div style=&quot;text-align: right;&quot;&gt;&lt;font style=&quot;font-size: 8px;&quot;&gt;SA-?&lt;/font&gt;&lt;/div&gt;" style="whiteSpace=wrap;html=1;aspect=fixed;" vertex="1" parent="1">
          <mxGeometry x="450" y="680" width="160" height="160" as="geometry" />
        </mxCell>
        <mxCell id="nhPQqnQUPSQ_pBwds0je-42" value="&lt;div&gt;&lt;br&gt;&lt;/div&gt;&lt;div&gt;&lt;br&gt;&lt;/div&gt;&lt;div&gt;&lt;br&gt;&lt;/div&gt;&lt;div&gt;&lt;br&gt;&lt;/div&gt;&lt;div&gt;&lt;br&gt;&lt;/div&gt;&lt;div&gt;&lt;br&gt;&lt;/div&gt;&lt;div&gt;&lt;br&gt;&lt;/div&gt;&lt;div&gt;&lt;br&gt;&lt;/div&gt;&lt;div&gt;&lt;br&gt;&lt;/div&gt;&lt;div&gt;&lt;br&gt;&lt;/div&gt;&lt;div style=&quot;text-align: right;&quot;&gt;&lt;font style=&quot;font-size: 8px;&quot;&gt;SA-05&lt;/font&gt;&lt;/div&gt;" style="whiteSpace=wrap;html=1;aspect=fixed;" vertex="1" parent="1">
          <mxGeometry x="280" y="680" width="160" height="160" as="geometry" />
        </mxCell>
        <mxCell id="nhPQqnQUPSQ_pBwds0je-41" value="&lt;div&gt;&lt;br&gt;&lt;/div&gt;&lt;div&gt;&lt;br&gt;&lt;/div&gt;&lt;div&gt;&lt;br&gt;&lt;/div&gt;&lt;div&gt;&lt;br&gt;&lt;/div&gt;&lt;div style=&quot;text-align: right;&quot;&gt;&lt;font style=&quot;font-size: 8px;&quot;&gt;AP-03&lt;/font&gt;&lt;/div&gt;" style="whiteSpace=wrap;html=1;aspect=fixed;" vertex="1" parent="1">
          <mxGeometry x="180" y="680" width="80" height="80" as="geometry" />
        </mxCell>
        <mxCell id="nhPQqnQUPSQ_pBwds0je-39" value="&lt;div&gt;&lt;br&gt;&lt;/div&gt;&lt;div&gt;&lt;br&gt;&lt;/div&gt;&lt;div&gt;&lt;br&gt;&lt;/div&gt;&lt;div&gt;&lt;br&gt;&lt;/div&gt;&lt;div style=&quot;text-align: right;&quot;&gt;&lt;font style=&quot;font-size: 8px;&quot;&gt;AP-02&lt;/font&gt;&lt;/div&gt;" style="whiteSpace=wrap;html=1;aspect=fixed;" vertex="1" parent="1">
          <mxGeometry x="180" y="450" width="80" height="80" as="geometry" />
        </mxCell>
        <mxCell id="nhPQqnQUPSQ_pBwds0je-1" value="" style="shape=image;verticalLabelPosition=bottom;labelBackgroundColor=default;verticalAlign=top;aspect=fixed;imageAspect=0;image=data:image/png,iVBORw0KGgoAAAANSUhEUgAAAf4AAADZCAIAAABO08VIAAAgAElEQVR4AeydhXtURxvo759y71dIshEIDqUUSqkAVSRZjStEgNi6xt2Iu7u728bd3XXjQpAm4XbO7C4hJJCEjUC3zz705Ow5c86O/Oadd175P2/F/4lrQFwD4hoQ18B/rAb+z3/s94p/rrgGxDUgrgFxDbwVo1/cCcQ1IK4BcQ3852pAjP7/XJOLf7C4BsQ1IK4BMfrFfUBcA+IaENfAf64GxOj/zzW5+AeLa0BcA+Ia2Bv6N5D/1jc21tc31tbXxR9R1cA6rFnk3y+0U/L7hrhjiHpcCLvGl90xxNAQccfY+Exo7Ar9G2/fbmxsvHrzz9D0QmFzdwK3KaKwNjy/JrxA/BFBDYQV1MSU1GfUtDf0jS68eLW+vvGlDPKNDfCqa+vrCy9eNvSNpVe3RRfVh4l7hYhqAKnJ2qTy5qLm3uHpxVdv/oHTwBfUPQA0eAsFTT0JZU3hBbVhYmiIrm/ElDRkVLc39I0tre4HGp9G/8YGmF5GZxa90rl/Uj3Oa3DkVZmnlBnijwhr4LQy84wa65qerZF3QlX3yMvXb94iVD3mg3xjY2P19ZvStgED95jv9GzOqLJOq4j7hoiHhrwK67wG5wHD2z+7cmphZWN9/Zj3ireIpLi+sTEyveCRVvoH5TkCDZYIx4u4qFPKjNMqABrf69ua+iRW94y+ev0GimK77B6fRv/6+kbX2LSWYzgKS5HCUmQINFkluvgj+hog0KXxNEk06bqhXVxZ84tXr48//V+8ehOcW3P1kZUkmiSNF3eMgxoXMgS6FJYiS6DpuUYPTM3taYTvEgSivWx9faNjdFrDPhyFEUPjoHoFQBCABlUSTf7B0D6e27z6+s3bt7vVGXwC/RsbGxPzyzpOERKKJAh9OSWGnLL4cyA1AKcTSQz56mPr3Maef9aOtXy3vrERX9Z8SctCCkOGby7uGAdXA7JKdBk8VQpDeeaVwFtcES2pRVsahIamQ7gYGgfXH4Qlw6EnhSF9p2eb39S7tmtofAL9r9/8E5BTJYOnyRBowoeJDw60BmSV6JJoMtYiYHx28TjLd91jPAWWrySaLKdEP9AKERfOrwElIOKdU2eHFdSuH2O1z+s3//hmlkvjqGJoHFrXhdAgWAVN7Boan0D/5NzSfaY3Ckc5tN8gfpCcMkMaRz2rzk6v6Vw7riP8n7W1sLzq0ypMGbxYJjiQJeC2A0FWiY7CUh67xUwtLItWVBdhaROzS/foXiisGBqH1zEgNM5psLPqu3cJjY+hf2Njo7Jr6Ftda/Hw3nYcHtxJWSW6NI7KDM16/c+aCMekCItaWFmlBaVBVc/B1YO45K01gKD/Z1PX+t5REbamSIva4LYPXNG1Eov8W9vugPXkEBqciJzXb/7ZTYN+Av1p1R0XtSxkCeIV/aFO4HLKDEk0+bFr9KvdteJuWlq010zNL+m5x0hhxNqew+4YKBzlsq51aWufaBtUVKVtbGwkV7Ze0DSXEUPjgFn/4dQiqUgyeB77cnfQ+AT648qaz2uay4qVuYffimiyrkvUsUX/2MyChmOEFJYiVvR/OAIP9Iw0jnJJx6q4uVdUsBZtORsbG1HF9ec1OGJ58UC7wbaFS6BJeu4xL1+LQuqPLW0So3/bWj7ok5LHG/2jMwvqIkU/tFTbImRA64UtJ0VS858oWWC+LJJnibYQBP3WJS3HV+qPLKo/p8E5iFYTbU1+faVJokn6opP6xeg/7BU97JHHHP2ilPoR8+Qzaqzz6uxTygw+MpQYckr00yrMc+rsUypM0XIElnZWjXVKhf84OBPwVzBgjUs/q8Y+o8aSQ+aAY8WI44/+qGIx+o8KGiQ9d1EpfMRS/6Grev5r6Jch0M6osb1SS5K4jQ8YXkCJhEwA0niqsnVgWF713zQPaTx1W/7KEuiIu8neRhoKS/md7BaWV6XjGCaDp8kSEKcbxFdRThlssH+nZ+2VWsIJTZdXZR637covAP1iqf/IoCFG/xFV/bZ42t/JL0HqDxeJrh+FpTxkeo/NLLx49co1oQCAGKEwCkcl+SUOTc1o2odsNi8W6mqk8VQwJQDBnAE9DYHfEwH4oGxZJfCFemU6lOKlMOSHTO/M6jYT73gZxBnyHs2TGZx6RdcShaWgcNSfnjk29A4nlDacVWch9ulgbpBTFhg7bFIHgZKRmUPYyh+eEX4lkgMx+kVSjV9lISJV+Iil/iOaRb4E9Itgm1dWCYQoeJ5c1D8xk1ffUdM1+IOhHQpLAQbsOCrJN6F/Ylrdjo9+5GKyFAbQWRJDvqxjSfJLYoWknVFjyRDoKBwFWhzJImEPUDiqcAKQJdAAwfE0KQw/EslpFeY1PZtzGhwZAu3EA1NWcNrQ1OxtE+dvHphKYSk/PXOs7R6KLak/pUSHLqlgSsAKCkQca8HEgwM+9DIEGgpHge8shQQ7kSXQpLAUOC2JHDFi9Iu8Sr+aAiXBNq9Y4XNEyBZVN/oC0O8gAvRL46jXDewq2wciCmr0XSMHJ2cfO0egQKiozegPhRyXxlF/MXYm+yXZRmXTg1IDsyuKm7qd4/PlVZlSGPJ1Azsz7zjP5OLnSUXGXrHX9GwgfFE46h9kd6JPwvf6tjoO4SS/xIta5tf0bJ64x/xGdDurzn7iHp1X3zG7tOKbVkoLSLmmZ/PjE/uarsGowprbZi5mPgnO8fm0gJSfjZzAeoJAP6XCJFgFaNiH/vDE3tA92ik+nxWa9jvJHYWl/GrqwghKdYrNM/KK+w6+gKj74ReBfmDhIzYLFHXTf5ItYvTvTfP7yQo9kgu+APQ7fq7CB0jxGLK+S+Tk/KKWfeh1fdvy1r6owprTKgxpPFUo9WvYhaJwFGkc9R7Ns6ylt6ylxyO5OL++c3FlleKfdApxf/vVxDmjqqV3jBdbXJ9Q2tA/MZ1a0fzjUwdpPPWkghkrOHV6YSmyoKZ3bDq7tv1bHUu8hd/A5AwzOO2cBsc7rbR7dHLl5Stua19iacNtE5cfDO0rOwaa+kZy69q5rb1FjV0Tsws5te3f69uicNTzGpyIgprO4cms6taK9v6Chs4h3hy3tY8dkp5Z3VbW2stt7ZucW/RNLz2nzt5pl2LfneqLQL/Ywmff7fs5N4oVPmL0i9ZWe5vSRGLhAzZ4VVlheVXN/aM3DOxQWLJ3aknr4NhdM1cUlrwZ/ZIY8hk1VnBORcvA2J9kd0lF8k/PHMvb+mKL68+pc+SU6P4ZZcNTszqO4fIqrDNqLD2XyBHenF96mQyBeuKhGTM49cWrN3l1Heq2IT8ZOcEN5MHJGYuwTBk87Ywq0z4md3hqDsP2Pa8BSvvxKUD/6PQCOyT9x6f2Vx9ZOcbmzi2tPnaJQGGp59Q5kQXVq69eh+RU/kZ0vaxtQfFPmllc6R7lmfkkXte3vaFvG11YN8Kb/4PsLoEmATdLPE34+UxxWIz+z4Hj132vGP1i9G8Da9GeQtD/uVI/Cke5Y+rSPTLlnlQogweMJlj4941PU/2TJdGk99CPJn332LqgoTO+tOG0MkMCTZLGUQIyuTVdQ9/r29566tDQM5xS0XwKiXOAhJeg5dR2tA6M/WBo/797Jqzg1MUXL1WsA088NJPCUKQwJBXrwIHJGYvwTGkc9Zv7Jszg1IGJmdsmLicQXf+tZ441XUNpFS3n1FgSikQJRRLBwn9wctYSuf6cOie6sKZlYOy2ibOEIvHEA7M7Ji5947zQvMpTygwJRdL/7pk884idmFvAcHxPPDS7oGX+vb4t/Fx9bC2vCmxG980gMfr3XXVf/Y0iRX+Z2K7/aCaSr17hA0KNIzY8L169zqpus43Kto3K9k4rnZpfSuQ2ntdgS2LIcJtXwy4USv1BWeV13cO/Ed1k8bSfjZzK2/qSuI3n1FgKTO+BiRnPlBJgwEOgwUCzvull/eMzCizv//eXETskbWFl9U/Kc7APrMyQwpBVbAIHpmYswjOkcdSTCkR2aPrg5OxdopuEIphyfjIC27wxRbVnVIGFDwpLxZr79YxO2UXnyOCp59U5MUW1VR0DPz6xh9HSb5u4dI/yPFOKgV8Cgf7NA1M918iJ2QWsud83900N3KKzatoKGjqLGrtCc6t+NXGWxgt2jPeuDv4C0C+26997s4pkWhKj/2hgLZLGExbyJaD/s7Z5ZfC0c+rstMqWueWVmq7Byo7+qo7+iva+/onpYd7cfZrHiYdmJN9EvoUPYjmjZBXYPzFT2THgl8Etauyq7R5SsQ6URJPRbJ/+iWnv1BJoZwnsO/E0v8yy/onph0w++hdfrN6ne8Jwkgj6gwamZiH6JRSInND0gcnZu2aum9EfW1J/Tp0tgwfWQThzv54xnn1MrgD9dTVdgz8ZOSIx9Ml3TF16xng+6aXyqkxZJcY3D802o1/FOsgvsywouyIkt9I+Jvcm2IHYan4qbPdPHnzR6EeyDmz/2wUuGsCO9kPz3E9Wy54u4D/iwyhDSgwgOnxgHLynwo/wYpGiX2zceWQT+Fcew0cKQ1ZkeQ9NzQZll3/3yOpffc73ejaXtDha9qGj0/NWkVlSGPLT5zF949NaDqEnFYjyqiybyOyC+k6X+ALH2DzzsPS7RFcUEMkpPxs51XUPp1e2nEb2jSXR5NMqzLz6jsa+0euGdv/vngk7JG0L+pWtgwYmZ8zDgNR/4qEZPTAVSP1mrt/cN5XCIMadXUPIRsJ76LeLfh/9zz6Bfpy534mHZqdUmPKqzDOq4F95FaacksBjeV9d6wtAfxESw+cDpZasEjCOOgP1Xe9/C75SZpxRZQJvPgL9lBJdTon2OWqxT/JXHskk+t6+C+KucVoFthH05PjChEgx+r+wBtu2m37dUj+MO+8cnzfCm1O2ApK7NEgHBAx+LmtbFjV11fUMX9KywLB9ByZnvFJLrupaXtKxiMivqWzvtwzPoPgnGbpHK1sFQhueU0p096TCEd6csUfstzqWVx9Zkf2SRqfnXRIKpHG0Ew9NOaFb0a9iEzQ0NQd093jaiYdmhu7RvIVlekDKDwZ2p5UZt5451PcMxZU0bJb6+8anHQRSf2xxXV330E/vo99XKPU/MNNHFD44C/+TCkS+kxdwVUPcht+n3rat/5GTXwT6t7XwkcKQfyO5BedU6jiFA689QfYnWQLtlArD2CsuMKv8Oz0bvIW/b1rpHTMXmc9Qi+1UgVDev0t0c08qxFn4b9a8wWYy80mwjsy6pG1x3Ly4d/pFm8+L0S9G/zZ7umvr66svX62trW/sOnvnNqUITn3mNi8KS72mZ1PY2JVf3wl9aIE7LiIOS6JJNlHZQ7w5vGXARS3ziILqgcmZoOzybx9ZEX0TxmcW6rqHipq68+s7/4Uvt60Pb+kvhSHffGIfVVjTOTxR2tJT1trbOTIZkV9zXd9WBk87qUBkBKXwFpb+pnoIFT5KVgFdI5PskDRp4OdF/sXEObu2vWeMV9ne9yfl+Q0D2/K2voiCmrMChQ+G7ds2MG4dmSWDA3mywvOquG29Pz51gAqf2ybOLQNjHsnFp5FwQ988MHvkHD46PY/l+J1UIG4enJ9/LHL0b2xsvH795tWr1yJJCQcid+4QyEESTbpj5tI9OlXc1HVBkyP00EbhKDcN7eu6hxp6h6/oWBq6RRU3dSuwvKWFTnkwkhJYCrw/tLdMouCCba4Bor3gPHQV1LAPHubNMYNTQX8QFAIvSyitr+oYuGFgx/fIE3zLb7hNRQnOgGBT75oVHiMRqJCHCr4SnvlwqSd0Dt9cjjJSrPDMh8/9sBwQ6V0cvm27ennXPF/CtyKX+v9ZW+vuHxkcnRRJbr/PRL80jnL1kfVTjxisuZ8cotsVtg5Q4Bg7GXvF/052R+Eo3+vbPvOI0XUK/53sXtDQ5Z1a+qux0w8GdreeODxyCu8Zm0opb5JXZUlhKN/qWj1xj3ZNyHeKz9N3jbqiYykDwjyAlGe/kdyIvglXH1mDM8rAaeC6od0T9+jfye6IYhdIoD8ZOZp6x7ND0m4Y2p3TYOs4huEt/E+pgBg+MgTaNX1bfbeoP6nPZQi00ypMnLm/tmPYBU1zmBf7kralgVvUQ6Y38iuAf/KtZ44U/yTgB4DdPvqQ8Pfu9eAg0D+7sNTa3b+8siqY2ff/fxi0eVupH9mDoYbkVIzw5h4wPEGieYR6UliKln3o3PILq/BMGQLYAfpe3/aMOguyWIZAk8ZTZZAPdMnmB+0AGcnf2zZAdvipskr8tHHQpha5kSYDXK/5wZpQOKqabXDvOI8WmAKmHwFeweMI9Njiun99Nb7Xs5HCkIG9AHjuu6fAlwFXChgCfxTyqkCPB14VGhogN8K1LHAmR/4Er7GpNNjzN3219Vng6ZvvFc6FgqcLXwMeiNH/vmiwQzVtqbXj9qfI0b+2tt7Y3pvHrZ3kzX6+fPeZdv1wcS2D4wfheRceBxF2ZAggRoKsEhhygngJJBzHd255heSbgJjcUKTQ5B8M7as7B9Iqm+VVWYjVPLhLDnG4lUZKhkMUrvH5qWKRQfveGRCZB+hhoBMZvAxcgLBGILiBjUdhCcjt70Yp5Bcy5kFAIRh7TlaJJo3nB40QbdcSOfrfvn07M7eYW1bb0N7z6vXr/VMfufMj6JcDlq/ER87hE3OLTnF5CBbBtHpameGfyR2dnldk+kiCFZiLlmMomKcR/dglbQsNuxDryCzL8ExV2+CLWhZw4x26Ut8wsIN6IRkC7Rdj58cuEdf0bZDeRTulzPid5EYLSLaPyWUGp96jecJ8onz0j22HfiWAfm5r3y8mzjhzP6vwTKp/0m1TV7AeRQIF/kF5/tgl4pK2JQwzJUOg3aN5ajuGXdS2QGEpVx9bP3aJ+MnI6ScjJ6JvonVkpop10Fl1trwqE832Mw/LoAcm/0Fy54eDRazRLmqZq9kGW0dk2UXnGLpHXzewhSVL46i/k921HMK+07N5yPBmh6SzgtP+pnqcVgEb0Tv1KJGiX7zNe0Qzh8jRv76+3tzRm1lcW1jRMDv/uQnfPxP9fD7CwGebZCjYp+HEIAS3LBLU4YaBbXpVS3P/qGtiITUg2Tw0PaOypaFnWNUmiC+XwUhqiBIZufedaLa5wA8f8d4ZxLrj3fWCd0NwD7f++Pr6zVHb3n276Xo4hncapfs+fxDon11YLCivzyyu7ugdfPPPrhJ97DRDQIXPToEcpPG0q4+s63uGS5t7LutYwnn9BwPbxr6R1IrmS1oWkmgSIyi1Z3QKzfGVwlAu61gEZpW3DIxlVLWmVbS0D40HZpd/q2t14qGZlkPo0NSshl0wzBKKwlGIvgm9Y9MEywBElmcYuEa19I9y23rjS+pLmnvaB8dNvOJhzCgg9Y9N0wI+kPqV6NFFtZ3DE9GFtSXNPcVN3T2jvOrOAWgbhsJR7KNzesd4d81cwSYBAeRJ9kwpaekf+9XU5cRDU0WmT/fIVHRhbUZVS0lzd23X0NjMglNcnmV4ZklLT0lzT8fQRFPfKIbthwIhnmiXdSxCcyp6RqcyqluTuI0tA6P59R13zFxgbCibyKyukcnw/KrCxq7ipq72ofH2oXFNuxCwfBF0sy29SKToF9v1f0Xob+noTS+sSskrr6xvW1p5sdPo3c35z0f/ll778T8RtgKxziIsMzinIrqoNji7wjkuX4HpzZehjqiZPv7aB/HtAaE/j1ubVlCVWVQ1MDKxtra+mz6w7TUfl/pBO+Kpniklo9PzqtZBKCyIuKfvGjk5t8gKSpPCUiTRJIuwjInZRby5vySahGZ5zy+/sI/OOa3MkFdmWIZndI9OaTmEgt0Up/DZpRVdxzAh+mmByVPzS6o2QVIY8tVH1sVNPdzWvjumLrJ42o+G9kVNXeXtfT88sZdEkz6C/siCmpev38QV1ykwfS5qmj99HjM1v+QcnyeFJqOwFNeEgsm5xd+JbkL0B2aVD0zM3CW6nXhoiuX4jc0s9IzyiL4J3z22vmPqwm3rm1lcSSlvVkI2rh45R4zMzPtllJ1SAc4l6nbB0wvLjrG559TZcgS6jkPo3NKKQ0wO4ixCcozLe7O2llvXrmIddEnLQtU6aGBiJqao5tT7CtLNfUyM/v+cwmdj21H4/sn19fWWrr60gsr4zOKUvIr61u6Xr/a/uv9MXf/m/rrLY6Hy57QK86KWBaLkAXF+dpKAdlnsF3fZntC/G83exsbG3OJSPrc2KZebmFOWW1Y7NjWzmxvf71/8vz6OfjlEsYbj+M0sLrvEF4CFEZ4aklPZMTTxB8kdxD3FkM3DMsZmFiD6HzK8pheWE0oa7lE8LmqaX9QyV7EO/MnI8aQiEaB/cUX7HfqptIDkidlFVesgZLlgyQhORbN9ZAi08xqc7x5bB2SW941P/0l5flKBuKOuX4keXVjbOTz5J+W5JJokoUj6VteqtmswoqAaRmN1jS+YmH2HfuhS3jc+fQeg3wyi3y2pELmYfFKRaB+dMzm7CHb7H5pJoEnfPrIqae7Jreu4oGkuhaXcZ3gxglK/17ORU6Jd0jK/a+o6NDUbnld9WoUpoQjQPzazoGodJIkmSWHIp1UYaZUthY1gh3wn6yMx+v9b6F/7Z21uYWlufgn8u/Nndn6xprkjJa88Nr0wPqskraCyrXtg36v7w0c/YDSyK8jfRvti/W4+c7LZPfo3NjZWVl/OzC1+pFfAr4ZGJ7NLqhOzS+MyipJyucWVjftWCX4C/coMGTztW13L0pae8ra+b3Wtbj11bOkfSyhtOKPKgl4afPRb+EthyRc0zW0iszuHJ/snZgobOq0js+6aucrgaRKKxMfOEVvQTxWgH+7K/PjUkeiT6JlcHJ5fHVdS3zY0PjAx89en0B9bXFfdNXjzqT3cUrqkbVHe3h9bXHdahSGFSP2fRD89MBXajJ5UIJqHZY7w5u6YuZ5UIErjqZd0LDOr24qaui9qWUhhKadVmGi2r21UdkAmN6qwJpnbtLT6KjS3Uh6EDyE5x+f3jvGAWRqOIoMHWxeJZY2lzb3AfmEHdb9I0f9RXf87FSey3IZ/yoD9kHefzSpRwQ4YHdk6B3bcQGTbQW+1vxHy4SsBve0Oj9hy8Z6eCIvdqeQ9FbXtxbvX9S+vrBZXNeWW1eaU1OSU7vApqc4pqUnJK4vLKI7LKIrLKErMLk0vqOwbHNufwc8hK3w2VxG/QXdo081XHtzxQbf+R9589+hfW1vvHhjNKa3bsVeU1oA+U1KdWVQZn1UCO0ZcRlFyLpdb07y0/GIfsj/U9W9r4QN/FBj1BLpVeObs0gtFpre+S+TE7OKT59FSIFI3DYWlCNEPkEcAyFNkebND0+JL60d483XdQ2iWzzcPzHQ3S/1IhgaKf5JA6if/YGCbUt7UMjDullho6h1v4BaVVtncPzkN0a+O6PqpAckwywJ8Mcii2OK62u6hW0aOYNsfS7mMoD+upB5BP9k1AUj9v5nxFT5SGLJfRtkWqZ8Vkg7JBtE/Oj3/O8kdZH3A0xD0txY1dV/QMpfCkB85RbT0j+XWdfwbaOTJ8xgzn4Tx2YXwvCoB+vP6xqcf0L0g+k+rMBK5jWUtxwD9fAc8NdZp6IMHMqkyzqqzz6qzz6lzhJ+zaiDhKrSUgEkt5JQYFzTNr+hY8o2mRei4AdwFGWfUWPCJkMuCdK/vNv344wphxxk1FrTF/shgE/YMpHPwlxR86O88r3yywI9fsHv0Ly6t5Jc3puSVJ+VyP/5JyCqJRbgfl1EUm16YlF2WVVw9Os7bB/2PBv2IWfcpFeYp4BO7KW3WISv6kZ5zWgW4nopWcPl4l4Df7h79/6yttXYPZJYATc7HPjncxOwyIffjMoriM4uTc7h1zZ0vXr7aK/0/iX7ozYdm+fSNT/tlcGOKalsGxm49dZTEkOFXQoWPFJZy28xFzTb4nDpbQpF4Vo2pbR/Km19yTcg/qUjUsg+dXVoxdIsGsTdAIh2KVXjm5NyiinUg9APnLSxR/ZOlseSTD81QGLJnSsnA5PRfVI+TCkQV64De8Wl6YIqEIlFWEM4BjGjEuHML+iva+2NLoNRPto/OmZhbvE/3lESDlEEyBFpUQU3/+PQdM1ehwocVvCP6L+tYZtUAqf+CJkeWQC1u6m7qHbn1zFESBAE0vfHYpn98OjK/GqLfKX4r+pO4jaXHAf0oHPWWkaNddI6mfYgsgSaJIf9F9fBNL/VNLwvILA/ILPfP4AZmlTvF5f1k5ATF/NMqDDTbxy46JySnMq6kzi+DS/ZNuonEwOKT9HPGMBK3/W+qh31s7i8mztDqA2fu5xCb++NTMIdvGVfSOOoNQ3uH2FysuZ8khrTl2w//BCZlgllKGke9pm9jHZGp5RAKUnvvsP76sJDdn9kL+l9kl9TGZxbHpRduHsC7OU7O5RaU1/Nm5vY6wo8E/cDFX5mhaR9C9ku8omsljd/Rym339byPK6Vx1F9NnG0is++Yue609N5Hsbu8ZffoX1tbb+nqT82v3E1P2HJNYnZpWn5Fa9fA6zdvttXp73Tyk+iHfhUXtcxTypt4C0sTs4t+GWVySsCCXg4JvGoRljE5B7d5ybrO4f0T0yTfxDNqLFk8DcvyHZtesI/JkUCTHjK8R3hzkQU1Nw3tr+nZPHaJaOgZmV1chug380mYWVom+safUqZf0rbQd43qHp0anZ6DUv+fZPfO4cmI/Oqrj6yhKoL/L4L+uvel/or2/jg++inPPGImgWVq/tVHVjef2JN9E4enZoemgErnxENTHMdvfGZhs9RvGZ65Weq/rGOZU9te0tJzQZMjR6BVdQ78a+z04xOHU8qMn4wcPVNLXr5+E54vlPrz+9+X+pN2IfUfRpYuSQwZb+E/NjPvk14qi2S5e+YZ++LV62ZkCZNf35lf31nY2B1XUv87yQ2Fo5xRZTGDU7tGpjpHJpO5jVEFNdzWvpHpudy69r8oz4FF9mbub68I2iS5b/HrQxJ5S2HJRp5xU/NLajZBYAOQQKf6J7cNjD1keEE3TvAIqCgAwZJP/WcAACAASURBVF5IDxheIzzgzX/ioemmpwueAq9ESpZVov9GdgNWuiClH1UKQ75j5lrVMQBTRMkIGSS4ZaswCH35wNMZfBt24ZWbf/Wm4z2gfxmgPyGLr8nZMoY/+WdKXjm3rnVxeWVP9D8S9MsQaPKqzPD86ub+0V9NnGEYTlCfH3SGd/W/fT3DJhY09KZq33TjBztG8ClKdEkMWdshbPHFS33XSMTn84MrNxco6uM9o79gP+iHKsGs4pqewZG1tbWdQP/h+d2gHyp2aAHJM0sro9Pz6rbBJxXMQM0D9JNZwWkDEzNYjq8khnzD0C6Z29TUPxpbXB+RX13e1lfc1PM3iMBKuahlHpRdMTG7WNLck1PbnlXTml3b3jvOU7IKkMKQbyPWNa0DY3HF9XHF9Ulljfn1na2D43D/9oKmeWhuZe8YLyy36js9G5BiGhnmcgR6OPIUGCAEKnyKm7ojC2rkEV3/zSf2mVWtw7y5vLqO/PqOZG5jeWtf6+DYbcS4E8P27RufpgekwABwICJsSFrf+DSMCAsUPtoWqRXNcJsXhSVT/JMGJmeKmroj82tSypuji2p7xniBWeVQ6rePyWkfGr9H4+v6/81fFFNUV9DQeXnnIBMizdK1s3EnRP/o9Jx3WglEv7FX3Mziipl3whUdi2t6NjBA+XePbeTVQOTbJ+7RU3NLmVWt92meV3QsLmqbX9e3MfGMG59dyKppg0a+kL/QYBY6+wmJLIOnIZFegH8mzN4niSZLokkwsDvUvUphKUYecVNzi6o2QcAniEC/rG358zPHs2psuKqAJUsgd33zwPQezXOUN28hQD+wIUGyrUphQLFQ+QhtEqQwZMfYvNquoe8eW39z3wQwSI1166kDkBoQnQ+ybQBCAkhhyJLIv5vj/0njwGyBuBQC8zXwzljKx9cKh4T+9ML4zOLU/Irqpo4Xq3tY3SPo/9x4/cLG3eUBSO2ixoooqG4dGPvZ2PEEYjUhCWL3v7PzgQ2BQswEJRDTiM3emMImhq2w5UYY1AF2DxQOaSDBzAG6HCxTkXTioZm2fejy6isD16ivGP1x6YWJ2aW53Lqhscn19d0YkYGJAKD/U0GbQRvhwZqb6Jv4zDNWOPbh+T8pz029468b2AJfLQL9mp7NM48Yv4yykJwKakDKr8bOYLAjrrzf69uS/ZICssodYnP/pnr8TnIz9or9wdAeLiDuEl3tonMj86tZIel3TV3/oj5/8jzm6mNrMDAJ9Ov6tnouEWY+CZufLkugKVkH6LtFXtAyh4oKeTXmY5dIFZvAU8rArU+GAKKFc0IzArPKLcLSfzVxVmT5PH0ec1nXEoUlf69va+aTIHARBx3mL+pzin/yFV0rRBIF0FC3C9FyDJVXZUrjQUQQLYfQwKxy/0zuY+eI6wa2us7hwIdcmYHCAfsfY+848MIgvBVNTomhZhus6xwOM1FvO2REus37KfQP8yD66Scemhp7AYlb2yHspIIZ8FnAAe9K6Lt8RceyqmOgpX/sNzNXoCNDfgxIwYqn+aSX9o7xlJHou3DuPavOxln4Yzh+QAtPALKADIF2w9Bewz70x2eOYH2gRP+T/Jzkm2gRkWHiFfeLsTOwEkNyYRt5xIGtHj76aT8bO2nYhVwGPv3gAhkC7XeSG9U/mR2S9pDhrcjyHZ6aE6AfdMcfDEC2VYvwDHpgigLTG2QKxAH5QtM+pKipi7ewzAlJV7MJvqxjeV7TXNk68C7RFaAfdESQvEnNJsg8LMMiPEPVJvi8BgcqiGTw4DXUbIOvPra+Y+ZK9Emg+Cfdp3simxA7qiwOCf2I0h8x9yxvAs6cu13dH5XUf0aNFZ5f3dA3ctfM9T7NkxaYYuIVB4InI+NZTpkBM38psnyoAcnM4FQt+7Bvda0g/YF7MIF2w8DOwC2KFZz21CPmx6cOAscr0PoXNc1VrYPogSnGXnEgKwDSqUCfBAo9+u8kkOCX4p9019RF2z50YWVV/+tGP7ItlJRTls+tm5rerUpwN+gH2IKbZAKx6R3IBGeArIYcw5EL7PpVQKQEoUTFPybQTyszTiHBOUAzbSoWrMWV6PIq4FmwEGRJB5Z6yBwDaCB8iuCV+CUIzyMyJaIqAO/Dv1FOCTxUUCxiqLLpuVAMhRfDcja/FTyG10AinVZmnFYB/RZ5yXel8e9FXM03l8N/pe1Wk4eP/lJZAh/9vIVlHcdwSTTYzoZ2PrJg852sbB04vbAcklMJY2LAloaN9+MzBy2HMBDEHNH5yBBoZ9XZ/pncht5hJBUGmKJRWIpNZHb70MQ9mqc0jvr0eUxN52BT32hVR3/b4HhJcw/O3A+RrClGnrETQOoPRiYeGiMwdWhq9h4VbMvIEGjajmG1XUP9EzNNfSN59R3h+dW8hSXz0IwTD0yl8ZT7dM+c2vb2oYnKjoHG3pHmgTFGUKosgXbzqUMSt3F6YWn11evWwfHUiuafjZxum7g09485x+eDVSoSkcY3o6xzeKKhd7ihd7h9cDwgk/u9ng18K7JfYvvgeFBWeUZVa0PvaN/4dFPfiK5TuBBY77q+oEUPDf1QIxSfVZJeUNHZO/TP7lb3R4j+0NzKrtGpf6M85tV1NPaODEzMlLX24sz9oDxxXoPjEJPb2DdS1zNc1TnQPjQRW1z3s5ETDO3wgOGVVd3W0Dtc2dHf0DtS0NCJt/CHYVJ+MLQLyalo6hup7hys7R4qb+s18oyFTDmlwnziHt3YO9wzOtXYO5JS3hSSU7G4svrY5WtW+AhVhUk5ZcVVjfOLS7tRCe4W/QI9Kh+Ugm4PufzeSeFk8GHcU+FX7x8I8QLKEdwFywQMhc/adMu70ffhScEZoSZQWM6Wg23efNNv3PLQj5f23vsLX1gwB7z7CZsqDd5yZOg38oxdXHkZWVBDC0hhBqWyglNZwWk4C38pDIUakDy79IIRlAJV8O/qGpmuAZeRKRpWHwpHNfKInZhdfOYRA0fsFV2rosbuoqbuM6rMm4Z2jX1g0P5Bcruqa4Xn+LUPTSRzG8+osiQUye+hH0+zDM+YX159SPc6qWD2k5FTdedgQ++wsmXAj0/s1WyCS1t6Vl+94YRm/O++yb8LutiSurEZoHm8+sj61lOHtMrmgYmZX02cZZVovxg7xZfUD/Pm1GyDbz11OIXIgINTs16pIDOUNI5iG509ObdoEZbx4xP7m0/s6YEp4zMLDjG5MGMfPTBl9eXryvb+p89jfjVxVrEKbBscz65pQ1YG2wv+h4z+uPTChOxS4Mw5PL62/mlnzqNCv7waKzi74sXL1zm17cqWAbeegiBug5MzOTXtVx9ZSaJJqjaBk3NLwdnlt546XntsTfFLmppfso7IlMICpxhfxBRPycL/qq6lItOnsXc4vqT+opa5NJbqklDQP8F75hH9vZ7Nr8ZOITkVzf1jD+hekmjSHyT3ntGp8rZ+HMfv52dOj50jarqGXr3555FzxNes8OEbgwGVYFJOWWV928qLlxufUvzsHv2bISA+FkkNiBT9O9v1Q13/MG/WO40v9T/zjF199aZjZLKstbe8ra+iva+ivZ8Vkg5tdWcWV4w8YzdrV+GvRWbmd1EpoDb2B0O7qo6BxNKGU8iumrJl4BBvluSXJIWl3DCws4rIVGT5SKFJKAz5nBorq6atrnv4e31bCUWikWecUOqXwdPMwzJml148AOgnmnjHT8wtkv2STioQgapXkWToHsVbWDYPy/jmvslZdTbRN8HEK14GR5XBUSUViZyQdGTHOBhRGVO8Ukt6xqav69t+88BUEkP6g+zePz7jmVIsSwCeeK0DYyUtPWfVWJKKJEk0+Zw6O6OyBYZ0P6lApAem8OaXzbwTpDBkCQXiv0owYNPWD2zaUFv2twUz+WGjHxr755TlltaOTU5/0tzzqHT98qqs0NzK4ak5VevAkwpmEmiyDI7iEl/AW1jGgC5BfsDwsozI/MnICXjeY8g/GNi1DIyF5lZK4yjyKsygrPKxmXl9l4gzKkwZPBVn7q/vFnVWjXXDwK6meyiJ23hJy0JemXFaiY43B1mC7aNzpLBkRlDqzOKKvmsk0nPIKByZE5q++uqN3n9D6gc+gJklKXnlDa1dn/QAB+jfIWizSOgmLuQjNXBk6DfyjJ1dXGEGp/1s5HTHzPUu0e03M9dr+raSGDItEEj9SIBssHWz+e1lCcAhQGB9D4wlEDUIzTOluH1o4i7RVRoZ250jk3dMXaDj/g1Du0fOkW6JBRH5NfEl9aPTczVdgz88sd8B/SsPaF4SikTnuDwQQt3cTwpLllOiS6JJf9M8RwTbvLIE+kVtC7xVgHVEVmhuVVRBdX338OzSiqZ9iBSWLEug+2aU9Y5P//jMEZj0YikC9JfI4Gm3TV1GeXPh+VXQNhl6PDjH54/NLCgwvE8+JDKDUgGtbIJQWLC+kSXQQnIr24cm7piCPFOba0N4fCToj0NiPFQ1tK++fPWh8cbmM0eI/vD8qqa+0Z+MgCU4TLT7xD16YWVVzzlSGgdMNX41dX7mGeeRXByZX5NU2jCzuBKMaBqlcRQMx6+ivb93bIrb1ueRXKzI8jmvwZFAEx8yvQYnZ3rHeOmVLRlVremVLQUNnbyFZc+UYhk8zT+T2zU8JQz3L4EmadmFLL14+ZVv8wpcQBDNT2FSDjezqHpkfGpzN/jwWIx+4RA+/INDRv+cUOo39orjzS8j27xEFNjj5ce5lcKQla0CpxeXw3KrNuv65ZRBxO2/aR4W4Zl/UJ4LUzcg0fXIaLbv4OQs1T/5sqZ5VedASG7lGTU2Ckf51dgZaMz7RoKzK8xDM0y9E2q7h2q7hyD6jflSP7DwEUj9Kw9onhKKRLeEghHePJrlg+RnAOGT/qZ6wm3e/903uaBp7pZU2DE0EV9S7xCb+8wjNrKgZnpxWQNBv5wSQH/f+PStZ47AjAeiH0kFLoOn/kZ0G+XNB2dXSKJJUAMop0y3iwHeH2im98mHZsxggH51W7ADgWzW0/noNzte6E/MLs0qrh4YGf9kAK8jU/iogm1egH5jJ2iTh8JSDNyi5pZf6LtGSaLJBAv/ivZ+bmufb0YZKySdHpjcPz4dklsJg7kDwxIDW5JfYlxJQ33P8NDUrH1MjpwSXZHpPTw1V9LcA3bpwzIswzMtwjI4IRlojq+cEj0Umaf/FHRRSTRZgP7/hK4/LgPofFLyKiobWldefCKm/7FC/xaNgshYDLYQoNXNe1KsyMoXLP33WuCRon9hWdcpHMTSEwa/RTblL2tbcNv6Okcm/6I8h953iBkl6d890ujC2onZBWDhs8mvCoWjnNfk5NZ1pFY0PXaO6B6dMnCLlMKQUTiKVUTW1NzSs+cxMjiqhIKZLJ6WWtFc1zN0E5H6n7hHj83Mq9oEQ5s/vsKH5omkakqdmF147AyW7TAjKwy3ZBGe8X//NCJY+o9Ozwdkcs+ps1AYyv/+NkYCAS5qOoRKYcEWsXdaycDEzA+G9icfmkliyO+kfgLtu8dWfePTmVWtMO6HNI56WpkeWVDdPjR+19SFL/Xz5jRAwNVjin5BYJ+Kzr5d7fQeIfrD8kDF3jZ1gXFRpDBkdkja/PILgoU/CkNO4jb+Gxr3b+ApQjmpQLyqY9nYOxKWWyWNZNdStQn8jeQGczPdMXVJrWgempq9bex866lDa/9YZEGNNI4ihZiEyqsw9Vwi8RYBMgSaQ2zu+OwCwcJfQpEkjaeeVCDqOUcsr776uu36+du8iJ9gUg63pKpxfmn5kzu9xwr9QnOabTw/9otXUNTmvd8PfUr2XfJn33jY6PcBdv3vLHweOUdsMckHljw46mPniLGZhbz6Dry5/3ePrS9rW9x66sAOSePNLyWUNpwHrlLvNjyB4I8hE30Shnmztd1D+fWdPxjao3AUaRzFLbFwbGZBBZkqzqqxnrrHDE7OVncOQKlf1SZoeGrOMTb3vCawrTQPS59dWoG6fgWGd8/YVGJZ43ePreWU6cjObcPKy1ec0PT/++czLfsQ3sKyXXQOMBEj0B7SvUqae2YWl9XtQlA4igSaaB2ZNTG7qGITJK/KROEQhc/EjEdKMegHBFpobtXQ1KymXYgcSDBNV7IM6BufDsmpPKfBkVAkAqn/eKM/DrHub2jrfr07+84jRH9QTuXCyqprQv5lHZAx4zeSW0V7f1330E1De1k8tbChC7hfPLKWRJOu6FhaR2QtrKwG51RIYylXdCyTuI0p5U3X9Gwk0SQ5Au15ctEIb+43M1dZPDUst6pzZBLL8UXMkanqtiF9EzMOMbmSGLKyZeDc0op/BveSlgV4ItEtq6bt9X9kmze9MDGnLK+sdmp6bv2Tm7zQrv846PoRifO6ga2pd/xfNI+tHqOfAVlZAv2MOlvXOeKRcwTI/bKJWnsV0kV+vUhduj66zUuw8J+YA37YsgT6Nw/4dv2PXSKAcvydTRJffS+vwjT1jm/pHxuYmClo6EyvbK7tHhqfXUgqa7zNV+K/5xUpiSH/bAxSni6tvnKMzYP+FNI4Kt7cv2N4srZr0DOlOCyvKqW8uRP8OXTziYMkmnzdwC6ntn18Zt4tqeCCpjknNH1hZVWB6S2BJsmrMuxjciZmFwobukJyKrOq2/LrO2cWly3DM/7f38Y3DO2yatoGJmeQKBTcZG5TcVP35NyilmOYNI4qgSZiOL6dw5Mdw5NheVU/PnH4jeg2gvg0nFIGIf1+NXYuaOjsHpkMy6sMza1sGxzPr+/8g+QOFjeIWDoxu4CkWeBL/eF5VV0jU3ePi8KnODmXW93Yvrr68kPt7bZnjhD94fnVU/NLhQ2dcSX1gVnltV2Dg5MzzzxiEF9QKiMoZXR6Pr2yxT2xMLqoNqaobmhyNhTRNMoSaGY+8T2IQt8hJjcou7xzZNI3vRTG0vqL4lHS3NPUN+qXXuabXtrUP1ra0vsHGUQSvqDJCcoqn5xbTKtoDsgsz6ltr+oYXF59pcf35j3UVf+hefNCqT8B6ACrRsanPrnzD/vJkUn9myVxxOgehaOg2T6dQxPM4LR3mtj3uQTgi1jr8/W023wryMyD2PXLAWcr6hVdy7z6jvz6TiBfwr065On8tcV7Bb7HNJGzfkuBh4R+EAPHwI7om4Dh+CFCOuWOmSs1IBmJ2PPOuxK+HDThl1Nm3KN5MoJSPVOKQ3Mq3RMLn7hHX0OM37dMFcDKk0A/rcrUsAuh+if/bOwM/S9AJD8VBt7C3zk+PyCTax6W8Rf1uZJVgL5r1EVN4IAnS6D9QX5OD0wxdI8+p8H5k/KcFpACHgGyYlIvaVs8ex4TkMkNyOQae8XdMXM180m4R/OEkZjumLmyQ9MDMrku8QVKlgG/k9xNvePBz0H0eqdVmHgLf+jt9b2+zRVdSzPveAzQBQPvYuC3ZeRID0zxTivxTiuhB6b8YuwEU8dJ46l/Up4TfRNuPXOAO9iySjQlqwAjr9jLusDXbEv7wT8Pa5u3MD6zKCWvorS6eXEvkRqPBP1w/1zZGjT3PZqHeVhGdGGtd2qJmk2wvCoLNtNFLYsnz2NA/KjscpJf4q1njo+cI5StgmSVgHL2rDpbzSbYOb4gLK/KL6PMxCvump6NDAF0VxkC7a6Zq2V4RmhuVWhOpXlYxm8kN+h4AXLz6tlQ/JPC8qoDsyqePo/9i+pB8ksEoaIOXeg7PPSnFyZklWYW1/QMjHxy70coHwD0f8qbd9sOv++TsO3g3h5cscHtNBSOguX4Dk/NcsIyTiqYIQQQZNkUSP3gXjz/JETEZhCBpIxINl1+ek4krS6CfhB2v6y194KmOTRZBMkmkW/5BQoy9L6XiVfw0H3/0k/eeEjoh/Mk4vGISD1w1v1IHGZEMYJC/HvPqLLOa3BOqzBR2Hc5Tj/8YbAeoZMbbBK4b4PCUf9NXHBeg3MKSbot4Cnf3Q5kSUU8++EbwiaB6jng9YOnnVVnnVNn8/Mdb/Log5l3zqtzgJs18p5wvpFF1HkgtzLQ1FOF2xiQC+C1kXkedr6zaqyzaiwZPA1EAkCECP5rCOPLQzdFJNUnuGAHXeFhoR9E6C2qbJqeXdjNcl44whH0H3YgByRcDwivCIfiKWXGRS2LMyBMiDALLvgKaWL2eRAcEYm4Bx19kf4JbwTJXrQtzqmzgSWCIE02tCqWU6Jf0DQH+daRqB7CFgSXEejnNczPq3P4sIA3fignHvAIPyT0pxcmZJZkFFa3dvXvKYIblPp3StD44Rj//DPSeNpZDfZ9mqeOY7i2Q9jfFA8Q6gBPRQGDLt+BiRlWSNpFTY6Spb+2Q9h9mhcSCAHIWwheqN8+siZY+Os4hitZBtw05Atn0M5QTpn+q4mzhl2IrlM4ztzvCiKoobAU4GbU1F3S3AMyriDxO39Fcvle1gUpJ6/p2ShZBjxyjlC1Cbr5xB7i4vN/5m5KECn6dw7k8KH3Gn8y+OhgEOAYCdkv2Are8VcJFnFwBPIvE4xhIfG3PPfdnx/cLnj6uykanoElg2NEwBcQn7/W2/xcYeHCA+HLwzNQ9tzS3shX73wXPqw6YSHCg72iH0TufM8aDwTl/+QnCTHkH9l73OYjkfph5QhrXgYJ5AIba4t7JJwAhJO0sP+8ayMklAj8U1jn4E9kAbdZ2nj3UOFXH/QrYQmHcLBn9O8rcmd8VklqfkVdS9fqHuM2H7LUL40H6hfH2Lz2oYnG3pHG3pHWgTGriMzzGhxJNAnDAfHUogprgrLLm/tHu0d5PSAlbzJsd2k89d9EuDFFdS0DYyXN3Q09Q7m1HRiOL5Ad8SBZvKF7dFUHcAiv7hzsGgGRPn8xdpJEk/nob+k5r8E5qUB8wPDitvTGFNddfWT1q4lTfGlDS/9oUVN3bfdQXl0Hmu0jjPh70N3jkLZ5D/pn/MfL3wP6l1byyhuTkex6iTllO36yyzZPD7FIcK70gsregZFdBm8Qivxv3749QvT/xzvG7tH/z9paS9dARnHtjl1C0FsSskB+rs2fpFxueV3LXuO58sO3HdY2LxIqhsYJTefNL3mnlaJZPopM7/C86vHZhUdOEScViAosn8Gp2f6JGef4fFXrQHWboJquwbah8V9MnKWw5H8dMCMLqjuHJw1co+6YuihbBhQ2dhU2dl0DzqEkNBtkFMir61S3CblP82QFp84sLiPxpemXdSyLmrqLm7vlVZh3TF3L2/qLmrp/J7mdRCzIp+aXdB3Df37mqGoT1NA7nFXTdlHb/F3k4INcFIpU6t95m/c/PgIP+ufvHv1Ly6v53Pr0wsr0gvL0goodPuVpBeWJ2e8yMUGxrq27f385Go9I4XOom2YH3cT7K3/36F9bW+/oHcooqvp4x0gvLE/J48ZnvkN/Ug7I4jAzv/hJU87N0gA8PsxtXikM8O2v6hgobe65+shaAk06qWD2s7FTUE7FY5dIKQxFgek9Oj0Pst0qM2CuXYvwjOGpOTW74P/dN3lA9+obn3aIzZUj0OXwNBSGbOQVNzQ1q+0YhsKSAzLLh6dm8eZ+JxWIUhgwTzjE5tpEZZ9VZ1/Wtixs7C5o6LpH88ir6yhp7v2dCCyGpTDkoKyK6YVlDbtgeWW6hAJRwz7EISb3MojcCZwND/ojUqn/owqfg/4l/+Xyd4/+N//8Mz41PToxPT41s/1ncmZscnp0gldR15qcy0X88oGHTl1L16v9ZmYXS/1H1Tl3j/71jY2FpZXRCd7Y5I59Y2xyemxyuqt/OLOoEsr+idmlOaW1E7zZfXB/l0GbRVV1kmjSX5Tng5OzzvH5QHEvUCCfVWPJg0y/FEW2zwhvziYq+6QCEcbaeuoRMzg1q+sU/n//eqbvGjW//KKgoSswszwkpzIwqyKrum1ybpHqnyynRENC0fSDkM5IqGBZAl1elXlWjS2NWPjk13d0Dk9yW3urOwf/pjyHiR6lsBSsuV9112DvGC+lvMkpLg/D8T0DDBB2zBErqqqA5YgU/WKp/+Dn6m2bf/fo39jYWN/YWF/f+Mh/yAXrLZ39qQUVcRnFKXnllQ3tKyur+xveAoXPYW/zQhWtUHG/bb3t7+QWpf/mQj7y1ebLDu149+iHIF5fB91jp//gV/MLS3ncuqScsoSs0qzimoGRPQTo3yL4H6bUL4km3ad5DiPZlvjWHEiEbcQWA8TTRbN9R3hzttEgqxeCfuqT58ANSNc5/P/++eypR8zc0ovYojrryGyH2DyH2Fy76BxGUOofZPdTyox/PUVKmntAElnEiAuanMgSaNDCJ6++s3t0qr5nuKlvFGRTwQKbDhg3/raJCycsI6++s2cUpKWyjQQLhcPJKCdG/4EvrA5hnO8e/VvG3k5/rq+vt3T0phVUJudyy6qb5xZ2FYN3p9KOROEDrG4QszkR1z8QGKGl2daeA+18PszuKeIX2It4sSf079R8W87PLizmldWm5lemF1aCwN3/7CEt15aiDhX9GPJtE5eukcnArHIkvQlVCguiADz1iMFbBkjjqIosIPXbIQkdIfqB1D+JSP1/G6vZBY/PLFD8k4RplK7oWmrYh/5q4iKnREfiqw/fMLSTxJBg0hglqwADt6hzGuzLOpaFjV1FTV1KVgGV7f3lbX2/k9wl0eQzaixFlvevJs7SeOpFLfPfzFzTgLv43B/k58CFcC+tvL+LRYp+scLn4Bts22Y+IPRnldTlcev3vZwXjvPDV/jI4GnX9GyfesQ8oHuJ0JpeBk87o8bWtA/VdghDjALfuVnI4GkXtCweO0cqsnygcfC2LfWxk4gt0Mcu2HvvOiD0F5TXZxRVN7b1vHr1et9rwUNW+EjjqOc1zONK6nrHeQosbximCaTznZyxjMiSwpAVWT6jvPmt6EcUPiceml03sKto7y9q7LqubwMTu5t4xoNdXzcQDIrsl8SbX6IHpZxCAuX/bOxU3zOcUd16Ucv8krZFMdzmVWVi2L4dw5NFjd0/PXP4N5lMXEldbm37t7pWEoqkkw9MrCMzy6sAqQAAIABJREFUx2cX7oE07l8c+sUKn70PTpEM9YNAf2NbT3ZJzdDY5G4i8gspv+3BgaNfYEAptNpEYSkPGd5NfaO20dnQVw5ofrazJP64XoivwBHciMJRL+lYple2ZNeCLKGC7ThQMsjATHQta+kNyOTyXfY35VjeURHEfyug3kXhgHW5aDVUB4H+mfmFnNKaqqaOlRf71wHCfnKYUj9Sw8Blt7Z7sKlvxC+9LDinonN4gtva9xvJ7aQCEc32G56ag2ncodT/zCN2mDen6wTSSUnjqAauUV0jk4UNnXbROb7ppd2jU9m1bUhcANI1PeuE0obeMV5UYY1nSkl5W3/vGO/p8xgUlnxFxxK4dLX0nNNgS6BJmvahfeO8jKqWGwZ2xl5x/RMzqRXN9MAUp7i89qHxxNIGpF9tH6BXJKwQFiJSqV+M/q8F/Wtra+09g939w/sw5fyQ/geKfpC2G0dBPlTgA4goW1FYCprl0zs27Ryfj8KSgZiGgFXmvRjgwF+EfyOWKnTXgmMDam9QWJA3FPoSIhnWqJd1LQsaOktaer99BCwx+EoeJPLrOQ2OsnXgH2R36CKAOHMB3y5YAhJUapO7BvDrFr45SD76s7HTfbrnOQ2OCOkvcvRvbGzMzi82tHZ/pg7w8NHP948hgOi/XinFiWUNCaUNbokFv5PcgBcujvqTkZNrQoGqbTAM2CeDp92neznH5/9BdkdhQfT408pMVZugf/VFCaUN8aUNjrF5Pxs7QddOGTzthqGdeXhGXEl9QllDUHaFmm0wdPY8r8GhB6Uyg1PPqIHNZFkCXdshLDCrXJHtI6/K0nOJDMurii9piCmus4vJufXMQWzXv1WRKpysxAcf1oDIpf61tbWl5Rf7M+XcAf0Hss0rg6edUmb89NQRzfJGs31+euYIsyRC9HePTjnE5JxRY/5BckezfH41cQIJnAUivDSeelad/TvJHcfxu0f1vKJrJUwNBF03v3tk84DuieP4/U5yO6fBlsYD7fBlEJKls7i5B6AfS5HGU797bP0H2f2iloW8KvPHpw7f6dnAFcZ1A7tbzxxPqzJvGNgpML3vUT1g4l/YfMAPSIX5i7GTAsP7rqmrjmNYdm1bRH719/q2ItwtOAj0v3z1emV1dU/u3B92iSNBP6Q/AmvaGTUWMKcRxFSAK8JTiMM87CGwEU+BpRtw5UXuBf7eckr0c+p8J3whpqHJkAyeKq/KPKfOPiXcZ4KrOuRfuPKD/oOnQIpdpqwS8Pk/rcw4p8EGXv3Qn1zQPz8c5qI9I1KpX6zr/1qkfqiH/Rw17ubRfkBSP2C3GoselFLVMVDe1lfW2lvR0U8PTDmnwZZEkxTZPp3Dk9GFtZ4pxWUtvbXdgzVdg2Y+CXKINlYaR/1e39YnrbSivT+7pq24uTuhtOFPirs0HgjyMgSqilVgbm1HTdfgvw44dd1DfullN5/YS6JJl3Ws/g0NW9zUfUXX8qQC8Rdj5+TypqjCmu8eWd98Yp9e2WIfg8RzVWLYxeSmV7ayQ9PTKpor2vtbB8ZiimpvPXNERD/aOU2OeVhGUVNXYmlDZlVr7zgvNLfyHhXEFYCgEck4PwD0v4X2P5vbd9/HQOFzuDF8BLI/3xV/syIOHm+u/O3PwKgqAtvQd82EaB0F/vmbDDSF2kgBHDYXC453KlBw/btHiPSMGP1fw/JC5FL/vgfztjceBPqhiGTkGTs6M59Q1qDtEKpuExRfUj80NfvIOeKbB6YPmd49Y7yByZmg7Ipnz2MM3KJqugY7hyd/NnaSxJBPKzM8kov7xqdZwWl/U9x1HcO5bX05de3X9G0kFEFCzaa+kbruIROvOIKFv31MzvjsYkAmVwZPvahtkd/QWdTYfUGTc13fNr2qpalvRMU6UApNvkt07R6disivliWAtUhIbuXyi1cFjV0WYRk6DmHuiYXzy6sOsTnSOKoUhmzqHd83Pm0XnfObmauWfWhD70hMUS2iUxKlO4/I0b9t++775JGg/4BI+sUVK0a/GP37Hrm7vfEg0I/CUS5pWxQ0dDX0DP9s5AhsJBSIPxs75dS20wJSJBVJD5nefRPTSWWNV7QtUVjyiYem7JD0iblFbcfQb+6b3jZ17hmb8k0vk1dhyoJwjJRnHjG8hWUdx7D/3Td1TSiYXljWdY5A8muCecI/kxtZUHNek3NRyzyvvqOgofMPintUQW1T/6iSZQAKR5FEk+4S3VoHx5EkX/RTyoyg7IoR3pyWPfD2PKlAvKZn09I/llbZfF6Tc1LBLK2ypW1g7JwaS0KR9M19E7ekgs7hyR8M7WE2MVFxRIx+UdXk11eOGP1i9O+W4Pu+7iDQL4Wl/PTUsX1oPCCLCzW2YAtXiX71kRWMgqLI8ukZ5TnG5qFAtmSaJJps6B49zJsz8oz73z0TZatA3vxSemWLbVS2S0KBfUxuVGHN3NIKMzhVCkPOqm7tG59GNnKREM142kUt8291raTxtMs6ljm17Y29I1k1ba2D42o2QdLIZq8UlnKX6NY2OCFEf0huZevg+C9GziDTHDANAhNVQUPnt7pWJx+axZfUtw2OX9G1lECTpdCkgExu+9D4dQM7Mfq/Psgez18kRr8Y/ftG+m5vPCD03zUFChaXhHxgBw1jZSvRpbBkaRwNbPOyfXtGec5xeTLI1pwUlo9+Y6/4bx6YajmETi8sZ9W0uSYUeKeWeKeWeKUUuyYUKLB95JQYRY3dHUOT8qr8tEoCax8Kss1rlV3b1j061Tow1tg7co/qATKMguduRX8ogv5fTV2kMGQwZ+ha5jd0FjZ2gQAyikQN25DeMV54XtUjpwiL8Iz2oXHv1JLTykzRenKKpf7jid3j8Fbi8G1i9O+W4Pu+DkG/iC18pLDkm4b2rQNjYXmVckhIFmk8VV6Npe0Yjmb7SuOoCkzvntGpD9A/a+wV/797JhiO3/jsIiMIyPhw6++8prkC0/vmUwcpDCW1orl/fOZ7PVsUliqnDKwzHzC8tB3DzqqzL2lb5NV1FDZ26TqFQ/f92ybOUhgQjYsv9eeArO6nlBlI/rWJ22YC9OtY5td3FjR2fQvQT8KZ+9d2DxU0dMWXNqRVNttEZl19bL3FwPTzAfEFoP+wInd+fmV+ZSWI0S9G/76RvtsbDwL90jhgmhlfUt81Mnmf7nlSgXjyodlDhlfrwJhjbK6EIlGB6dO9g9R/QoH4vZ5tVcdAXl3HVV2rEw/NTj40U7UObOobfeYRe1KBSAtImV5YpgUko7BkCUXSJS3znNr2nNqOi1oWF7Us8uo7i5q6L2qZEyz8e8amcmrbf3zqcELB7A7RVaDwEaJ/fDP6Cxog+q1OKhBD86rquodAjg67YAWWz9XHNjI4YOq32cLk81kjRv/n1+HXWoJIFT5ily6RWl/tvs/9By18gHMmloJh+zb3j1a09zvF5TnF5VW09TX3j6LZPicemCkCly6ec3w+X+GDAQqfkek5E694KcTD6+nzmL5xXmpFMyskzSYyu7pzsLpr8Heim4Qi6dpjm/TKlp5Rnm96mU1kVlJZ4+j0PCc0XQoD9pbzG7pKW3ou61hIKBL/ZffQ5GwytxHJvOHcPjQRmlsllPrbhyZu8xU+iC8YiOXS/a2u9UkFopFn7NjMfPPAaFlrb15dR0Z1q1dKyW1TF6Gp+O5b/yNXitH/kcr5j38lRr9Y6t+t8L7v6w5C1w+z4skq0RVZPtGFtVUdA5Udg7HFdViOHzSRvG3mEpJbaegeA/x74Txh7hdVWEOwDICZV+VVmTqOYWkVLWWtvaUtvWG5VffonsARF/G//fGpg2tCAbe1Fy4OjL3izmmwkYBf5o6xea4JBSA/O3DypD1xj8mobtWwD/nB0N4/k0sNSJYFHsV0akByYFb5DUNbFJYig6ee1+Q4IvPTeU3OaWWGc1x+ZccAKyTNwDXayDPOI7lobGY+PL/6rDrrOLt07bsPbHuj2LjzCKcfkSp8xC5dYql/uyF+EAofOGYgps9rcK4b2l03sDuvwYHqcpCTXYV5Qcv8jBpb4IoJQqhf0DKXV0UcepEU2zJ46iVti5tP7K8b2CHBcvn6Frive1qFeU3P5uYThys6lvwkjoi35zkNzjkNDtwhgGHfL2lbntc0P6XCOK/JOavGBq6hSvSz6mx4ErrwyAGnTXAjCkv5g+zeOTxpF50jiQZ2nxKKRHkVRk5tR3lb33dA4y+yEC5fgNR/6C5dR0jbY/VoMfrFUv92tBbpuQOS+vn0B07zIDC6NI66WVsCZoX3gzYLE68LRyBAPEjJDT5bt1jh1jEsFgdCuAgex5DGIwncBQ73sgQQeQ3OATBTK7gSCdGzWXePPAskdkfhKD8+dazs6OO29v7rzPUn5fkDuhctILljeMIzpeS0wKxI+JKfcyBG/+fU3td9r0gVPmKpXyz1bzdnHJzU/yUOTrgIULMNSqtsLmjoyq5pz6puza3rcE7Iv25gt3UG+rweJUb/l9hDDuedRSr1i7d5P2+g7rvJ/4PbvPuuq+NwI0J/2iVti7tmrgpM7z/J7jcM7IAbAX5TaE9R9KUvAP1F9edFGqz0OLTvF/EOYvSLFT7bCeoiPQekfocI4KcqUJJ8EWPjQF8SxnoEG86ITglCX7SWnXLKDAT9ViUtvSJtT5EVtn4U4dsOtFm/oMKBwsc99uWbf3bTnP/nIxdtbGwklDdf0DQXeff9gmrzqF5VEk3WcYl6tbtW/EgjHtBXYzOLWo5i9G8nZMDMXMju8UF0Hoj+4uOK/o2NjZiSBiD1C7ZSDqISxGVuWwMSaJKee4xo0J/b0H1J20LcittW9AGeVGJIYihPPOOPLfqnF1eeesYDv1mx1C8KNc7u+xIKS/lO37a8vf+AJvXPLHZjYyO7DjjKvZ9CZ7s58nDrbfc1/KVeqcSQRJONfBJ3CY1PSP3tQ5PXDe2BB424nQ6xBmQIIDi4e2rZm89IkP2ZY/jjt794+do2OlcKC1IUifvGodUAElmIfJ/p2znK+3gDHeG3LYMT3+vbyeDfZTk+tPr5Lz8IGqR5pZfvEhqfQP/iyqqBeyyMZvVfrtZD/u0oLOXqY5va3rH19fUjHMMfefT6xkZOXee3j6xROLFYcHgiLUgAiaUwQzOXX73+SOsc7VcLKy8fu0YhK8LDq5lDHqHH8HEoLOWanm19/8T6+sZuOsDH0P/27du19fXilv5vda1QWPHS/pD6sQwB2KTTg9MXX7wUVVKt3XSFvV4zs/jCxCcR+LUiuXOP4WD4+l4JhSXfMnIuae3f1eDea4uK6Pq19fXC5l6QixxYARzSqPn62npPvwgaF7BCMxdfvNxlM34C/W/fvl15+co3s+KcGhvI/uLV/UGqfaCLEApL0XQI7xmfPc7cR9I9rjcPTmA5fjCCsXiQ72ms7vViGET6W12rsPzaXSpzd4kAkV+2sbGxvPraO517Vo0lhsZeG3qv10M3dRSWquMU0Tsxs0uR/+3bt59G/9uNjYUXL8Pya2+bucmA5EfASZKfSeNYHoDXQ2K8yBLeHRzzdwYVC4wCKec1OKa+iR0jU7tvQpEP3V0XuLG+sdHUP2HoHnMeCWZwnHvFlndDjNboSEpI4I4r6DDAi3jLlUf+J/A0xlFl8NTfSO6xpU0rL1+/fXuchf63bzfA6y28eBmcX3PbxFUGWrsev4o98pb9/BeA0LigySH5pXSO8taRmt/l+N0F+kFJG6uv3zT2j3umlWo7RfxN8/6b7n2P4XMsP9736F53zFzPaZp/+8jmqp7tGQ3OzybO9+he947tO9O9/6J5oc39GMHp6dVtk3OLx1ze39S3AP0n5pZSK9uogSmKHL+/aN736MezY8C3At3jb6rndUN7eTX2dUP7e3TvPymeV3Rt5NXYN586/k31OFZdBRlrXjrOkd7p3OaBsZevgcn28QY/7B3gHVdfv2noG/NIKdVyDP/rWEPjOPfYHd6NDw1/Zkh6Rk375PzSXqGxS/SD5lxfX3/5+s3k/NLA5Ozg1Nwg7/h9puaGeHO949MuCYV3iG5B2RXRRbV/Uj1I/kkNvSMj0/PgtY/lmw9MzY7w5hZfvHyztrbxRQztzfjf2Hjzz9rCyuowb+749g0eaPoh3vzA5ExaZYuSdTCG7Zde1TrEm+ufmAnOqfiL6qHlGJ5e2TowOTPMAx3pWPTwqdmByVne/PLL12/2JNNtap+jPORDY24RdIxjUqVfy2sMTM0OC6GxF3kfdog9oB/esAHWc8f3vxevXkcU1OAtA6IKal6+fvPmn7X8+k4N+xB2SNrg5MzxfW/kzY5yjIri2ce8ejc2NhZXVv8/e9cBF0WS9c/9du9ub91dN9xGs0gGc845i0iGGXJQREVymBlyzjlnESQHCZJBcpackyQREBUkTPquu2GYgQYRBAGb3/y0p6e76r1/vfr3q1evqkMzSiTMfLGeUVWtnQQiEZJ5FI8vqmvFeUdLWTz0T8rrfg0MvJbT36dons9XxnJCcrXJMu9W/Wjqn3dNS3Dju/cjHrGZvDquwelFI2N4aFxMJBKL6lrv2gbKWvkX17USlmu65BLg88VWQSKRiERS3YtuPd8YIQMP76c5vQPvpgyQSSTSqzeD/kl5osbeSk7BmeX1I2NjU675YgFEFF99CKwS6gccuqH3jpFpvDqukdnPR2n3PyCSSI2dr7BeUUL6HgmFVcs8QWL1Gdnn1YhEIr0fGU0sqhY39bln9zizvGGKeVCLN4bHVzR36Po+EdR3sw1Lbn/1GvEVqPFBjlcNAquE+vvfDlqHJvPpusblV4ziYXYvIpFIPa/fWoUk8Wi7PkrOe/t+rtmvq6alv0xFiCRSR++AXXgKr46LdUjyi57+D1I5iUTqfzsYmV0qYeZz29o/qaj63fuRLxM9ROtVjMBqoP6e1+9MAp8K6LslF1fjCYRZWuvd+5FHyfl8uq6WwYnd/W9muRL5aRUgMDqGL6xtVXAKFjPxeZJTNjQ8MvcADp5AaOzsMQ6IE9BzNQ1MqO/omd20VgFciApfFAIrm/pJJFIH8HLtJyLGns/K6ufi0I2O4ZOKq0WNvTTcwus7Xq7ErIkvykDnpyyJTOp7O/gwKQ9t4InxAN6W9UHbmF4RiUQaGh5NKKqSswmQNPMNzywZGHw/94fH9AKRMwgCyweBFUz9JBKp9WWfpkeElIVvblXT3Ps2gUgsqW+7Zxcoa+2fX92CJyzTfXKWj5WsLEkIRGJ1axfOOwpl6PkwMa/vzeBC+Bows54+h8h0IQMPbZ8nZU3tQALux+fSrSwMEWlXPQIrlfqJJFJz1ysl55Bblv7F9W1z532oRYkkUlNXr5Z3FNrQMyavfGR0bNW39JegIIlEGhweic4tFzPxfuAYVFjbMjo2WwBw7pi8HxnLrmxUcg5BG3r6JeW+Gni3EpZbz10/5MovDoEVSf0kEqmuveeu3aM7No8qWzrn1wlJJFLvm3cOEak8Ws7e8dlvBpGJ35Vt/UQise1lv1VIMq+Oq31EWmfvwPwMYyYUiETSq4G3fol5KEMPJefgvOrmoWW8feZMWiDnEQQgBFYe9RNJpIrmjltW/vftA+vaFxSsB4K5I6PB6UW8Oq7mjxM6eweQgfwK7RgjY/jMigY52wAJM5+Ewqrh0cVKyR8dw5c2vND0iBQy8HR5kvGipx+xmRVqM1+42CuM+oH1WfVtkuY+qq6hzeDq3IW33xiekFJSK2rspeYWVtPWBa32W3ixSAlLgwCwFGvgnWdcppCBu65fzAK9gbnITCKRXr97H5RWJGHmc9c2ILmkegjYUg35QxBYSQisJOonEIh51S2iJt6anhGf1tsiEoml9W337QOlLR7mVjV/7MzBSmrw1SUrnkAoa+5Q9whHG3k+Ti18/W5oyXxwPIFQ3dZt9CheUN/NIjixuauXgOQLrC7rWt3arBjqxxOIWRWNQgYeun4xi5GSTyKRWrp7dXxjBPXc4vMrkYnfZW730IxuZPZzEWMvJaeQkvpW2KV8i63FwOD7pwWVt6z8Jc19Y3LLl/nbdRYbDaT8FYTAyqD+MTwhtaRWQM/NOCC+783gIuFLIgHJ4I6RaTw6Lt5Pc/rfLp0LuUgardZiCURic1ev6eOn/Hpurk+edfe//YzrMwjg9LJdeCq/npueX0xVS8dneQit1rZG9FokBFYA9Y/i8bH5FQL6btahyQPvFndNDTTxG5RWxK/nbhL4tP3V6yULICxSA6++YodHxlJKam5b+UtbPEwpqQH26fvcWfYkEmlkbCz9ed0DxyBRE6/AlIKej98/ffW1FKLRckZgWVM/0KNGxyIySwX03B2j0t/O+bWTC0QcGGSU1kqY+Sg6Bte0dX9Gj3KBiqyy20kkUnf/W5foDH5dV+OA+KbOV582fXOBcJGAt9a88YjLRBl5qruFF9Q0j+I//2NpgUoht69WBJY19Q+PjgWlFfJqu3jEZi7xFlpEIrGiuUPRKVjCzCe3qgnZv+WzdwA8gfC8sV3RMVjM2DvsWfGS+QEfq/goHp9f06LhHiFk4O4ak9nV94mXF3ysPMj1CAKwCCxf6h8cHvVNyOXVdvVLzPssa2dIJFI7sEFQjKCeezSw+ReSwAdrQot+kkQiDQy+D8koRhl6aLiFlze1j+E/zRrdRRId3Pr/XVB6obCR5z27wMzyhsHh0c8elVokZZFiVygCy5T63wwNu8Vk8eq6BaUVDn++XRagiV+n6HQ+PTf32Mz+t4s1w7xCrWcJxCYQiY2drwz94/h13dxiMl9Ne8XKEsgwvypG8YSq1k4dnycCem524akt3b1I0vD8kETuWgwElh31A7ulvxuyj0gV1PeIzCodGfv8u+sMjYyGPisR1Pcw9I/r6EUmfhfDDuHLfD8y+rSgStrCT9baP7O8fnQZzOjCCzrDWRKJ9HZoOCr7ubTFw1tWD+PyK98MLW6ewgyCIKcRBKYisLyoH3xLxpD540QhA4/4/MrlkySHJxCyKxslzX0VnYLBXYOQzT6nWtKn/Q6+YuW1XViqoJ67RVBiS3ffyg2YQC+JMw9KENR3N/CPrWrpxBOAdwJ/WsSQ0hAEPgqBZUT90Ip8Pb8YtKFn+vM6/DKL5xKJpOq2LmDi19TnWXn96DIT76NafZlfPIYnFNS23rMLFDf1ic2rWOIZ/kUCZ3B4JO153T27QBEjz5CMotfvhpZVetIiaY0Uu2wRWC7UDyTG9Q5gPCOEDT2BzfeX5Zp4Eon04lW/0aN4fl23iMzSzzL5vGwt6ZMIBk2uBCQX8Ou54bwiq1q7VlNuFZFIbH/12i0mk0/XRcM9orTxxSxvCf4keCKFIAjMhMCyoH7opSvqbmFipt7z2Hx/Jt0W4zywddfge7eYZ1xaTm4xz14PDi1GLV9mmQQisaq1S8s7il/XzSchp//dgl6xsjwxJJFIo2P43OomRacgIUMPv8Tczr43SPBneTbW6pbq81M/iURq6OhRdAqWtvArb+5Y/qNgEpk8PDoWkVXKr+dm6B/Thmzbu+AuAi2ijsuvlDT3vWcXmFPZOIZfzW/CIoK7jfom5KINPZWcQ7IqGkZGkcVfCzYjpICPQeAzUz+JRKpt675nGyhnE1ANbpj8McJ/zmvxBEJmRYOUhe8Dh6Dypg4kb2/ejUEE109YBicJ6LnbhqW0v/pSdsAfIxBKGl5o+0QLGrjbR6S86OknEpH0gXnbEXLjxyHwGaifRCIRiEQikUQkEsuBl648fOAQ1Nj5asUNewlEYmVLp4pLiKix17OyemidEbTd/4rT5eOsZsFXE4lEaDpnZAyfU9V012b8FSuDwyMLLnuFFdD/djA6p0zCzPe2tX9iUdXg8AiJRMITCCsuk3WF4f7Fi/sZqJ9AIJY1tlc0d5TUt0mZ+6q6hq7cmAmJROrsGzAJiOfVdonILB0YfN/Q0dPz+i3ivs3Ss0gkclVrZ3Zl48vXb/0Sc/n13HR8ntR3vMQvy7n9WRT5VD/hCYTGjlcmgU/5dF3NgxLqO3pSS2rj8ytGxvCfqgqkHASBKQh8Bup/Mzis7BwiqO8hZfFQ1+/JSn8tIolEevd+xCsuG23oqecXI27q+zitaJnvNDDFCJb46+D7UU33SC6ck5pbmLCRV0BywcDgl77QCZjtGB5JLKqWtQmQtnh4XcNRUN+jvqMHGT4usXF+OdV9BuovbWw/p2SzU8roirpDYW3L6jDukTG899Ps/TJGu6SMb1sH9Kyc/QaW2NZJJFJGWf1ZRZsdkgZnFK0SCquXubNPieCBIUrSYv4LhEFbuvuEDL12SpnskjSwi0h7PzK6mDXOqA5F6yU2D6S6JUNgNuonkYBwPJ5AGMPjP9lnDO8Rl31A1my3pD4nziWlpG50bGzehePxeAJhQakgwMQDgYBfsIJDwyMecdn7ZAx3iOsdu2+RVFwzb6VmuhFSdoE7SANxZDxhdHT0/fDwu8GhJf4MDr3v7n2t6hrGLqrDJqJ1St4sLrdscHBocGjRJRl6/35kZHQMj597LA6Kub8bHKppaErLznuSmBr1NDk6IWXxPk8SUjyCn5yQ0WbmV2VBY84+sPCNSnqymDXC65KYkpKZU1FT9+btOzyy7/SSkfHSVgRP/cDb74bev+joSsrI8gwMNXNwN7JzNbZf8MfO1cDO7YKc/tbLkuw3JG7KaagYWRvZucyvZCM7Fxs3n8dRsaUVVb39/WP4jwuMjuHxvf2vSyuqg6LibD38jGxd5i2Jsb2rno0zvzx2902pLefQjNzy/BqWRg4exvbzVG06IEZ2LpYu3o/CogtKynp6++bx/kgSifR+eLimodHF77GitomkMk7oroqg3JJ+UHdVuWRVWDikN5wS+OvwjY3HOE/wSQvKqSy+JMpiCpr3MAZG9q5ZBcUDbz48GUMkEju7XnoFhokrYM7yS+6+yMd8+ibTqZvMpxfxw3L65rbjHH8euPLnYY6/j3NvPC3IdF6QZTEdLeBeAAAgAElEQVRrnEEdzp0XeE9xi6Pvqdm6+za2tC23pfVLS5KrszYY6sfj8RU1dbpWDqd4JVjO8tCd5Nx09MamY5/qw7n+OPcfB679ffDq5qMcCyr56I3Nx24wnObefVmA/7ZCUFRsb/+c9lYDdozo6w+KjhO4o7z7sgDDaa4txxeq48ajNzYdub7+0LU/9l/+8/CNDSd4Nx2/uSDtpgAOKkt/mmvnJf4bEvc8A0K6Xn5EIBhYh9zRZeboeeSG8NYTNzefEaS7LEF3/db267eX/CO77arM1stSWy9JbLkkse2q9PYlEYPuitTW86jNJ7jYz/PKaeiVlFfOQmdjY/is/CL+24rbjnFsOS+8/cYdBm55Rl5FRl6lRf/wKDJwP2DglmfgfsDIo7Do1cFrBMhAz3l36wWxzUc5LqNuPUlMHR754pKvViflT2g1lfpHRkejE1PP8kluOHpj2xUpRj5lFiENVhSGFY39NB8UhlVIE/h8gjIxLEKazAJqDFz3N59FbTt2XVHbuLmtffbJAxKJ1Njapqhjsu04x+azQgw37zMLqrGiNFnRn0JHFIYVpckipMEi9IkKnIQdVFZQjYFbfvN5kc1HrkkpYStr62dXFmplEolU09AkoYDZdOT61itSzILqrMJYNhEt8KPNJrLEHy02YfDzGerFsaAw9Jx3NxzjOscnmfwsh0CA2fefQCCkZOYevYHacIKXkVeJTRjHJqLNLqrNLqqzVJ+lrGsmpbTZRLXZRLSY+FU3nhbaeZ4nNObp6DLYRneCuJD/F4oADfUTicTI+OR9VwQ2nUUzC6kvOSksiIPob97fcIRDVk2no/vlTIRIIpE6urqllLEbjnLQ37wHcBDAgAuq93PcrsXAo7Dh2E0hWeX6ptaZlKXwftfLVzIqWuuPcDDyKE5ICyn+Rf4rqs0ipLHptOBpHvHC0vIp6AGeQUvbBQHJDaf4WdEYEK4vEqVxzwDoHaxo7KbzwoevCxU+r5j7TMlCmQm5f5ERoKH+qrqG8wJSm86iWdE46Jk/4RuuAOtnF9Vh5FHYdOS6maPH0Pv3sLiNjIwa2jpvPsbByKMAzTSuIAVpRBXVZuJXWX+EQ03ffODNW1hloZMjo6Oufo83H7nGsNJVniSjBVujqDYLSnPDcS5pJcxrWvTweLyupcOGI9eZBdVXXBegsZBPCBfA/prrj92U09QfHILvWbNYIPLT8kRgkvpHR8dM7N02HOVgAfx9LTYR3KJZ0oK77kxmLaq97ar0/muCFdV1U7w5CP380rKD1wTprsmsbN4fV197+w05ptOcmXmFsMqSyWRglNP98qKQ1OYLogiR0dqzNgP3A9Zz3InpWdQ9s7mt/eRNkW1XpdnBcAftLYtmtzPZ8/I5L6pNz3lv13nu4vJKariQ45WLwCT1N7e+4BS/u+2K1Eo2d20WlMaGoxzOPgHT45J4PMHGzXv7WT4WlObqGMizorHrj3LqWjq8Hx6GNUECgRCXks5w8gYTvzLCZVMMmxWFXX+My8jWZYwqhB35NJnp9E1mQdUpFyNfWVCaW45zuj58DGtpyMkVh8Ak9T/LLdhxAZzXAmLfK9fB0d54RlBCEfP23dT36Pa9HpB4oLHpLGpVuPxAA7GL6my5IHZD/G5f/2tYyxvD461cvTYe42RFYRDqn2bV2pvPi0opYXv7+inoOfkEbD3Fw4rSmHbxZI9gFcaxoLAsaCw4A6zFJoxjQWOZUVggTLoIHWe8cGC2eVKG2Y/nccvsBbKJaLGisVvO8GuZ21GwQg5WNAKT1B+TmLrxyDUm/hXu74hqb70seU1M7vWbN1MapqOr+4bE3S2XJVYT9dNdu334hvDLV71TlIW+/m+1nKax1ebTAqxoLBLwmcJu7KLaW69I8d9S6OjqpqBn4uC26SQvOMELz7OsIAUfvGW0T9oAIESQ9/dI6h2/a7pLQveTsz8rGrtbQvfwHWN2UW2o6ilaTP/KKozbJaF7WNZoh5jO9FtYhXHTT04vZPoZkPoFVQ3MKVghBysagUnqD4tJ+H3fJWZBtemtvoLOsAPhfqlLqFvTqb/lRfsVEblt126tJurfziG776pg98zUr6xruuUcCvBPkeA1rdcMmQqPtHx75yT1G9o6g9RPSX6d+gBgQWP3Sek5Rqbr+cXsFNNhFNTcJ6lnG57iFZ91/K4pMwo7njYGMux0koWYd/K8MG586ADJNp72Ol4pqzCOUUBD3NQnPLPktLw5k6Am1BOnFjKhF3SeUVBDUN89OL3ooooNsxBmyi3MKCxwEnyAzVQObH8fp359sxXNd4jwFASmUj/LKqF+GXjqF5Wju357NVE/3QepX88MoX5YLmMX1dl2VYpXWr6dyus3snPZdIoXGCRN8OmUAxY09qCMYXJJjV9i3k4xbTY0Vt8vpqyp/Y7NI1Y0EAViRmFYUMC/TEKazEIYIC4EFgWFiZiEMMxCmkzj53Gs4PXjTwJhHMTL0FdW8Cs9n6qKS2hj56vLKjaMAkAYigWNYxbCMIEfFhR24l4tqGomIQwdj5qs9aPaFy+5cM5MQhhoXAJdzyykefSO8ekHFhDpQ0ICcqKAy6ZoOuUrQP1nEa+fwpwr/mCVUj96Bq9f9C5C/VO69Bf7dYL6H0yjfr4PUn9iUbX305wdotr37QLLmtrVXENZUADL75LQPXXfbJ+U3pkH5gK6bpeVbXaJ6bCgAYJmRmH3SxvwaDmLGntdU7fbLaHDjNLcJ61/Rt58lzh4DRp3/K7JaXnz8diOMO7YXZO9krrKzqH17T0Q9bMKY9lFtS4pWwvouXFoOOyX1mcBWZsFjdsBnhfSdz/7wOKuXWBlS+dNnDOjIPD42S+tz6FhfxPjiDbw8EvIM32cADn+Z+QBIbmwTkduG0FCzmIMCPWveLKnVWA69UOZnVPHubPYxLL6CRzFS19CqB9s5rGxMWXE65/Bf5+g/ule/wep3yChsMojLkvCzLegpsX4UTzbhMN+RdX2aUGl65Nnvgm5cXkVOVVNWM8odhEtJkHNM/Lmvgk5ScXVEZmlScVV1qHJeyR0bmAcnhZWCeq5b+dV2y2h6xWfnVFWf1XNjoFf/aicyaOUAikLPyWn4Lr2nksqNgz86jvEtNXcwp4WVAanFz3JLfeMyzolb84ooLlDVFvLO/pZecOT3DK/xNzgtKKatm5OrBM9n/rJ+2ZOUenhmaWPkguK69sCUws5NB2YhTAyFg9j8srDM0sis58HphRwaAAnZ/H9EeqnZc4V/w2h/pX6kIMyfD4c60eo/1NT/wEZg9i88uzKpqK6No+4rJ2i2swoIKTOJIThwjq9GniXXFIjYepzQ8MhMKUgr7rpnIIlKxrnEJlW0tAuYepzVt5C2Tm0rv2lqmvY8bumJfUvTAPi6fnUrqnb5de0dPe/UXML33JDCW3gXtbUzoVzeuAQVN8BUP92XjUBPbfCulasV9Spe2Z8Wi7pz+vsI9JYUBg+bdfaFy+dozMuq9gI6bklFFZ19b25ruHAJKhpFZKUUlLLjXU6r2D5MCkvOrtsl5j2BSWrtOd19uGp5x5YcGjYh2aUBKUX7pfWhxSBdeYQ6l/xZE+rAEL9K5v6kVg/LE/N5eS8vX6I+nOrmuraXwak5O8R14X8ZWYhDDfWsanrlaJjMD2/Gj2furiJT1ljO6+Wy/G7phUtHZbBSfR86vR86rvFdUIzSmJyy/cCM8ZpTwsq90rq3bMLfJILuOEPk/KZhTA6Pk9iciv2S+krOAaD1G+9nUfVJiyltPEFj5bzBSWrswoW/sn5BTXNeyX1TAMTyps7jsuZ0POrb+dVU3ENa+h4xaHhwC6Mi8ktf5iUt51LeetNZQ338JKGtsO3DBQcg2pfvJSxfHhOwfK8opV5UGJtW/dlZRvGiZnk6QAi1E/LnCv+23TqXxUZPjMGfJBp3hX8qJvORws5MzP1f3Ca1+BpQZXP05wHjkE1bd3WIcnsIlrA1KugJjfOqaGzR8bcl55PjVkIg9J3L214waftckHR6kVPv4JjyDZuFSCoIowzDXyaW9V06JahpJlvRXMnl5azXXiqkX/cHZuA7MpGDoxDQHK+2eOnDPzqSk4h9UDAx3o7j4pvYm53/5uwzBLg86wkobDqYWLebgld99jMrMpGNjCtiIFfXcbSr7KlixPjyMCvoecX86y8QcLEmxvnHJJRHJxeuENES8v7Sf+7oZi88tCM4rDMkvj8iois0jMPLChJRNOBRah/xZM9rQII9a9gKmQX1ZlLwGfrTMmdsEkdU9INZ4iWTKcGmDPU5dOmLcJcvJCK5nXvAqjfMKGw2js+e7e4jpZXVHNXr4Z7BAsKw8CvDlH/bcuHDALqzCgM2sADov7T8ub17T06PjHbuFUAz1oY5xGblVJSe0Da4Ngdk2flDQ6RaVE5ZWLGXqflzdPL6syDEmPzKiTNfOl4VJScQupedP8vXEPHpewcnV5c33ZO0fLwLaPDt42uqtsL6ruzCeMcI9MK61r2SADJpnQ8qndsAmraum9inRj41G9b+edUNgUk53vHZztEpAGPED41dbfwuvYefl23AzIGR2SNLypbCxt57pcxYEHNmNqEUD8tc674b/OlfmBeCzOZxUzb96B8MkZBTUYBjfG8MSiPGA3cxSQIfoSAHDgoyYxCBCxoLBOY+gbkwIEpE1MuoFw508F4Xv/ie/1AAt/EtBgo9rhSgL5ocNUMFfFBiX2MAtSAfIJHDruozrwDPixoLNg6NF2dFTo5kfc9E8hzOI9jRQM56WBqI5DCCFnCx24MRdv6OCYhDKOg5ixTkXMQbBL2hVB/YlG1b2LuDlGtnaLaTlFpQPDE4iE9nzoX1qmx6xUN9Te+ENRz3ymmHZxe9Ky8/pKy9U4xbQFdt+rWLuuQJBYUgIxbbGZzd29ySe1ZBUsWIYxXfHbry74nueUn7prS8arKWj1q6uqVNPVhEcJImftWtXY9sH+8QwS3R1zXNjw1MLVwp5j2bSv/ps5Xik5Bu8V1Tt03f5Sc39k3cF3TgQWFtYtIjc2rUHUNU3YJFdBzPyJrxMCvcRPjWNLQZhrwdLe4zk5RbYxnRExu+an7ZkwT6wCmI4lQ/4one1oF5kP9UN87fMf44G1DcPQ62Z2g9Y3MQpg9EnpXVG2vadgfuWPMIgRuhS+M2ymmfVTO5MwDi9MPLE/cM90rqc8MpDmP5xWworF7pfROy5ufBi6wOHLHaIcokBrBgp4t8WCKjS4F9YN+8X4Zg6NyJkAeHhq7T9rglLw5oJe8+WFZIyijg5ItByb2YfZJAYBc17A/dMsIUBlNu5aH9tk5RamZvs6T+oW1WFDYo3Imosbep+TNKRsSsArj9kjoCum7X1WzYwfXqc5U7wfPs6AxB28Zihp7HZY1ZhLC7JPSRxl4ALxG2fxgbvpCuerQA4BVGHdFzY5X22Un3CLVD4o0/YJ5U/8BaYPEwirfhJxd4jqMAhqHbhkFpxeX1LdxajpyYhwbOnsA6uef9PrRBh70fGrcWs7JJTUpJTWBqYWZ5Q2hGcXnFCyZhTCMAhqy1o/63w4+Ss5nF9HazqOq7BzyZmjYKSodemSeV7R6WliZWdEoZAA8QuzCU3Ormx4l54dmlORXt6i6hDKjgPTNR8n5Va1dYc9KAlIKYvPL69t7bmAcGQU0sF5RNS9exudXhGYUPy2ojMp+zqvtwiaM1fKKyqtuDk4vCkjJz6tuNgtMAHJMEa+flh9X8bf5UD+zEGaXuK5dRKqeX8z4+1smVodD/r6AnltwelFOVWNOVVNCUZWGe/heST0mQc3TDyz8EnMzyuuTiqoTCqsis57bhqdeU7cHChHG0fOpSZr7ppTWppTUJBVXx+VXPE4r1PCIOCwLciWVEz29G1POLAH1Q7FaRacQr/jso3dMtvOoPnAMSntel1xSnVRcHZtXEZCcr+wSuk8aeLBBgIgYe0VkleRUNuZWN8XmlSs5Be+R0J2lm1HUmf1g3gEfZiHMOUWrvJpmq9BkJkEN6FnOjMJwqNuXNbaruoYBAzLgLTGA805xvSkUDD3gp56fuJhNRItBQIMT41jaADi8dDyqZx9YxOSWP3AIhnx2SjmUEtiEgR0Rpn7Q2JP3za5rOrAD65iwrMJYfb/YgJSCgzIG0H4J49dTSUgtGHVpsDDOj/pZ0YAHI2bizafrxi4KiM0kpHla3lzNLeyqut1hWaO7toGn5S3AwR/2+F3T21b+0CpfFjT2vJKVmluY4aO4e/aPj90xhcyDFY07dNtQ3v4xJ9YRWgt24p7pPfvHV9RsAa1B7S6r2MjbP76obM0spLlPSl/aws/wUbyuXwy/jiu7KPAgB57ld4wVnUKMA55KW/hdVrWRsXx48JbBIVnD8MwSl+iMKyo2FxQtBXTdcqubA1MKmAQ0donpoAw99fxi9B/Gipl6f9AgEa9/lT0GplP/h/P6mYUwe6X0UktrA1IKwIWFwLIRYPsqYRyQv/zAIquyMbmk5q5toJSZr1tsZuvLPlXXMHo+9esa9mVN7WEZJffsAlVcw+zCUwpqWwpqW0SNvZiFsNu4VbCeUa8G3un7xdy1DcB6RQYkF9S9eBmcXnT8rim0LhG2D1OfXIK8foj6oVyL0w8stnIp24aldve/VXUNk7cP0vF9EpZZUt/e4x6bdfCWIT2f+kVl6/yalqcFlbLW/lIWvj4JOa3dffftH89RI2rtphzP0+sHmZRdRCsquyy7sumAjAEUlGNBY7V9omvaunlwzlB8hl1Ue5e4LjRqgR4PrGgcC0S14OvDAHnAvcxY0dhd4ro7wDRHVmEgiMGj5dzc3Sts5EnPr75bUve6hsNROVMWcKzDLoJjFwVGitAjHzwA3p/FLqoFVoeFlikxC2EwXpGxeRUHpQ2gIdTpBxaX1Wx3gLvZsKABvtshpr1LXIdVGNw9DRyNAYwPLpFlE9H6X5gFWmkFCT8dPXA178ct6YKkZRLUYJoIPQH4CGEY+DWgPd2AMNfEdg4sKMCphxb0Qg8JRgFNJiFNaKUVRSoWNJaBX4NZSBPaBAKcNtAA92AAVthC5YPFYthEgJ3jwNs1mQSBDzSQgtqICVzABYVMGQU0GAQ0zipY5lU3WYcknbhjfFTW+JqaXWpprXN0OgQLWAIw7GacKGcKRNRfEepHqB9IZtgrpZdYVO2TkHv4tpGIkZe4ic8xORMWFGDBaH2PvjeDstb+W28qb+NW2Sul5xSVYegfxyaMu6ZuX1DbgvGMZBTUAIgPjbugbPWsvC6jrP7YXdMtN5UwHpEvel6ffWBBx6MGccEdm0fN3b2WIUkg6dAEpqntknK8NNTPKoyzDEkqqG353zhmG5eyTVhy3YuXeyR0GfjVWVCYXWI66q5hbS/7NdwjtnErS5n7dfe/ETHy3MyhQMejekTWyC0mE+cdtUNUG6DCuYU+YC+bN/VDNCRnE9DU1Stu6kPPr86Cxu2R0EkuqQl7VgKQKRorqOdm+CjeMiQJ4xl5QdmaSQhzUcXmgWPQibumTIKaB2QM7tk95sQ6MQthDssaKzgGWQQnGfjHiRp77RDTZuBT59Fybux8JWzouZ1P/YCM4W2rR5dVbFmFcSLGXnp+Mbq+Mdre0To+TwR03YBFsGI6kua++g9jzYMSNT0iz4A7DfDruiUX17S/em0W+FTUxHuHmDYXzknC1GeXuA4zCrNbQkfcxMc44KlFUJKyS8gpeTPQ+cXcxDrdsQngxjljPCKtQpLv2gbulzaAnZSa8Po/mvohOqYQN9A0E08dcG8cqlAeNGdOGbBOjGzA66nCpMDb4qh2VQOup/oKlS9CUyxlTENtGNBJSBjgIYEGHo2qrmGxeeVBaYU+CTlhz0o84rLOKVpCI87JQigSzmyNCPWveur/cHInRP1xeRXJJTW2YSmx+cCqxdCM4ovgqpMbmg5Nna+CUgsvqdjsltBlEsTsFNM+ACQPYK5rANSv5R0F7XYCPirUZSwedvQOyNkEbLz+AKL+80pWDPxAFAJ4PKCwj9MKsyoaT9wzBdabjL9Skarb0BrrhwI+n2AjB6DPT6X+lPr2ngPS+pAjD23plVhUFZVdtlNM+39r91u6+3wTcs4pWO4W12ES1Nglpr1fxmCB8fQFLuliFsKcvGda0dzpEAn4gEyCmjexTjUvXqq7hdPzq0tb+OVUNfkm5poGPo3JK4/JrTinYHlRyfpZWb15UCIzCqPgEJRf0yyg67ZLTMcxMv1ZWb1lcKJjZHpmRYO8/ePtPCrcOCeA+o086bhVL6nYlDW147yimIUwcjYBztHptmHJMXnlA4Pvcd5RDPwaqi6hZc0dztHphv6x6c/rAlIKjtwxFjPxzq5q7Ogd8IzPlrMN2AlUlJb+vO7QLcCWNNwjcqqa3J48swhOTC6uDkwtOCZnwsCvbhLwtOPV69CMYqeo9OD0otoXL1VdgPgV5HpTE+UE9X/cal7qEpb/Mag17oKytbChp7ChJyfGYZ+U/uTOP7R9Z3Z1EOpHqB/y+vWjc8paunvV3cIvKFiiDTwqmjo847KYhTR3iGljvaJKG16UNbdHZj3/Xxe9oGTNDI58OTQcQOqPHs+BgRa4P7Do7Bsw8I/bcFUe6xH54tXrC8rWjALAJoXQUFfX98nzxhdcOEfKjoOz2OiHqP8T5PXPSP1g5AQSm11Eyzo0Oa+6+ZyC1U4xbcNHcZWtXaWNL0Kflai4hAITnuBb6WdRZC4/zdvrB4REY3eIaDlHZ+RVN5+8Z0bHrWIRnFTW1HHinukeCd2MsrrA1II9wD4zmAuKViX1bXYRKdv51OTtH+dUNqm6hicXVxv6xzLwqaP0Papau6TN/Rj51dnQwGAoo7xuv5Q+p6Y9NfU/B6mfURAwD3YRrSOyRhFZpfEFlUAcXAhjE5ZsE5a8Q1SLjktZzvpRS3cfr7YLPZ+6+eOEgtqW43Im4J74OKeo9LTntQek9c8CQcUmx8i0XeLaLGissKFHSX2buls4A7+G6eOE1pd9d20Dd4lpH5QxeJJTHptXvltcB4yf0HgMM1P/bHn9c2mXZXUNK9V2b8B2cpQd3z6G9yGDQbZvW03sPz3WP1evH8oW2C2uS8+nziSEcYpKz61uPn7XlEFAgxWN5dBwMA6Ij8gsrW7rKm14IWvtzyykeV3dvhDw+qmoX0jz5D2zjlcDZo8TIOpvp6V+FhRG0yOirLGdX8d1ZVG/6eOE4rrWyyo2DAIa7CJa3FrO5kGJ0Tll9e0vC2tbpcz9wKj05wn4ANw0sSFwS3evuLH3TjHtFHDyhlFA44KSVWPnK1XXMDoeVWi6MiitMKmoeocosFGl65NnnX1vwrNK9kvrb+NSxnhGdvUNuERnGAfEGwXEhz4rrXnRfUnZmkPdDgr40PEAXn9p4wucVxQQpAY3tjR+FF9Y1wokngPWgjtxz0zS3E/NLVzDPcIzLrtn4B1K32Mbl4rRo7i86uaD0gbgVpc4x6j01NKafVJ6EqY+Fc2dYibeDALqTODMZ1x+RWBqAQsKY/Y4Ibe6+aicCaOAOj2fmnN0ekZZ/T4pYMp9CiN/IdQPtfV4FGgOgZ0pKFG+Il7/auJ9Mpk8f+oHUpsTcqH5ImYUBvL0L6va7hDVAjcDAeb6dovr8Gi7pJbUFte1HZMzuaxiM079E0FPRgGNG5oOXX1vND0iNl6Vx3hETlK/MOCZMgthbMNTCgEOtV1e1B9MHesHAz6Q1y8MpKPsENV+mJiXWlp38p7Zbgmd/UAsCEjq3yuhhzb0zK1uzixvOAImPlK61jwO5pjhM9OmzcwozMl7ZqmltfYRqSLGXvUdPZJmftu4Va5rAA67gmPQdl41KNXH+2lO2vPaPZK6TIIa9hFpXX1vQp8V75HQ3cajquP7pKvvjX1Emv7DWJOAp8aP4lVdww7IGNzEODR2vkIZeGzjVqFQPwM/MMcjbe73vPGFgmMQNEu5U1zHwD82vazeMTJd0yPCNeZZd/8bIX2PbdyqJoHx/5shPyRjAO1+7DRB/bet/CtbOoX03KFnyS5xnajs5+GZpawT1A/mBQCAO0dnpD+vAwxyFVH/ZIz+Iz33edgY5RaE+hHqH5/mTSiqCkjOB3IYwGwHC5AKT8mb3bZ66PU0+9R9c0YBDUZBzc0cCmqu4d39b66o2l5UsiqsbcF6RY6nIghqsqFxDhFpNW3dNzCOm28oYjzBaV4Fi+28wDp4Bn71E3dN82uaQ9KLZ086phjo0k3z0lA/MM27V1IPzNMAxL6qZlvd2uUclcEmrKXgFOz9NOfQbSMGfnVGQY2tXMr6D2MbO1+dV7ScZd08RaNZDhYS8IECUyxorHVIck5V0+PUwuzKxmN3TOh4VE/cM61s6TQPSqTjUWPgV98lDkz/hmQUM/CrS5v7Zlc16T+MTSutw3pG0nGryNkGtrzsu65hv4VTkY5b5ayCJc4r+oCMAYeGQ31Hj4iR59abypeUrZ83AF4/PZ/6ZRWblJIam9BkNjSWUVCDnl/9uqZ9dVuXgX8sGxq79aaStLlvZ98blKEHHTfg9RfVtR6SMYDyZCDq3y+lz41zKm18oQamjdHzqZ+Wt8isaLQLT2US0DB7nJAHjj6hZ61zdPrHU/9sO3fO0hxL9BPkNoH50EtUI/iAQah/1VP/XJM74/Mrqlq6+HRcd4hoXVKxya9pDs4oYhbC3LJ42NbTbxwQf1DGcI+k7nlFq+icssLa1mN3TC6r2gJrCAMTDt02OiZnwol1tAxOaunutQpJYhPGbQWSOyO7+t9waznvk9I//cBCzNg7Mvt5VWunsKHnHFMhl4b62YRx1iHJxfVt48md4SmtL/vOKVoekDE4q2Ala/0oubimpP7FTYwjHY+avENQV/8bbe+o/dL6eySBhV0JhVUZZfVHZY2nu6If1ZkXTv2MgpqCeu5VrZ1vh4ZNAp8CS6gA7xhnH5FaUt92zy6QV9vF7PHTipZOKXO/MyE3YdcAACAASURBVA/MU0qBiX02EZy6W3h+TQs3zumYnElySXVIRhGPljMXzik8syS5uPqgjMHJe2b5Nc2BqQUXFK0uKFlVNHdoeQHbFz9OLWzsfIX1jJIw9bll+ZBD0+G6pkNxfZtDZNoVVRtJM9+o7OevB4eg4cJdm4DaF90mAfHX1O3ZRbSco9KflQHTvHskdPyT8zMrGmQsHvLpuHrEZubXtPBqudDzq1sGJxbWtlC8freYZ8/KG6A1FlOwnTngswjUD+xjASTtQKmxUyQZ/wqlA8E68pSfwFTaE/dMVV3DLquCif/ATzRzGEBplOthS5vXSYT6EeoHvP49krrAoq1KYFVhUFphRlldTlUjn44rg4DGXkk969Dk0oYXCYVVEVmlWRUNhbUtt638mQQ1L6pYPyuvL2tqf1pYmVhclVPZWFTXCjwkbhmyoLF0PKpKziFtPf3pZXXxBZWppTXF9a3JJTWSZr5zzOwEk160t11d3P36oeG2oX98Wmntyftm27iUDf3jXrzqTy6ueVpYmfa8trThRUxuhZCeOwsKyySEOSBj4BSVDmhdUBWRWZoNrnSDlKJJEPz4DrlA6mcT0WJGYfZJ6z9Myiusa+XRcoHeA8UshDl6x9g6NDmlpCa5BFBKwTGYXURLxTX0f7sRnJE3Z+DXOHTL0DM+2ywogV0EdxPrGJJRlFRUnVhUFZ5ZIqDnBoXmFB2DU0pq1VzDT9wzi8h6LmcbsF9aP6m4+nlje2JRdXJxbdrzWovgpP3SBvftH6eU1MQXVDpHZ+C8o+ILqri0nLfzqR2RNbIJTc6ubDT0j9stoaPlHe2XmHtAxoBJEHNByco9NjOlpDa5pOZJTpm0uR8buKxEwz08KL3osKwRsOuDgKa+X8zDpLy9ksDmmlMId2moH5zRAZYgQJ+dYtrgCvDxtXLQegVo1gdKToXOQGMyVmFwpxM0sOgBWusAZeVy4Zxyq5vv2DxiFNBkBksGUw+AB8BEdeD14AqMKVrP+ytC/Qj1AyF4dlEtTpzjVXW7G5qOOr5PNDwiLqvYQHk7LCjsLgkdXh0XTY8Io0fxCo7Bl5StoaUoe6X0+fXcbln537YGPv/L3juvaAUsRwReYgesizl130zS3Oe2lb+stf9tK38BXbcjssbA4p2Jt9x90HCXzOs/r2TFq+MCZq9qnlOykjT3hcS+ZfWQR9v5oIwhmMMDpIGyoLF7JPUE9Nxw3tGG/nH37R+fU7SCnh8fVGf2CxZO/aAYWvulDQ7fNoKWSo0HglDYnWI6Z+TNLynbQAk2rGjsARkDcCXt+M5L+6T0D90yAhUEHm8XlKwvKdsclDGEFmoBGUSiWodvG+2XBtJYD94y3C2hC+T23DY6Lmdy4q7pibumJ++ZHgL3AmEX0Tpxz/SSsjUkxkEZg51iwFvIWYVxu8V1jt0xOXjLkE0Et1dS74AM1cvQJXTPKVheUrE+LGsEUR6wF4Wk3sGJxFlWYdxeSf2DMsC905+yS0D9UIraDlGtA9IGu8R1UAYeRo/iLirbjC+WBsTTA9bBgZsmHZQxOHzbcKco8DyGhgjs4LwRmwjuoIwBmJQJvvpRSJNLyzm/tvm2FZA6cUDaYDe4Mnyi92EAtGUMAa3BLbOmKz67Uc30K0L9q576P5zhAxgHuA8MuO4ccGeAd4pSXu8JTc8Cm7sBS3zBfyd26QGHq2CGGbCGEDoAd7MZH7FC6zAhH4cFLIHiBM1kkVPOL0FyJ1QjuJp0XK+JN7ICrhakNU0KHcj+EA7QSn2aXz/e2aeovHDqB4oC+WWqSONrYoGH7kQTAKtkJ47H7wJeZDgex4BsgOoC0AOlcBxwI+iEUhAYd4TBhzq0vR3gwIIh7ElhwA0eoEKAZxKwlhiocfz5BFAbUO+kVGDSKvh10qLAW6aFRES0Zqb+T5PcCa6wxV5Xt7MKTvKMy3IHtuoEJjmO3zOVdwjScI9QcQl1iEg7ftf05H1zk8Cnfol5j5Lz7cJTLqvaMAkC727U9Ii8Z/9YzS3sYVJeYGqhglMwtGsQF84pu6rRJCBezy/mUXKBT0IOysCDHXSegM33Hyf4J+U9TMzT9Ys5dtcEWmZPsZl5HyDUj1D/tF400368M51fANl90HCXjPo/KAnMBZ8akDlm+My4afNiNgSM+sususWmfhYU5tQ9s+js54+S8+VsAtxjM0sb2jgxDtt5VaOyyzr7BsIySnR9Yw7fMfZ6ml3a+ELVJfSB/eNn5fUhGUV7JHUP3zbMrmys7+hxispQcQn1S8pr7Hx129Kfnk+dQ9PheeOLgtpW+4hUnFdUVkVDZkXDsTtGrGisZ1xWTnWTomMQ1iOiqK7VIjgRGncuvDkQ6keofxr1L6cuvayp/1MD9Wm8/k8t1cJZZmlKWFzqFwbiNuImPiUNbTxazptvKJ66b55V0YD1jGQU0Ah7VlJS3waleO2T0rcITpS18mfgU6fjUtbwiKh98fK8ouV+Kf3U53WJRdVH7xhv51XdL6WXUFgV9qxkh6jWdQ37iuZ2h4i0naLadDyq92wDm7p6r6na7hDGPS2oelbecF7BAtjh2cxXyTkEeuf7wiFFqB+hfoT6lwsCCPUvhNEWn/qxfDquBbUtstaP2MA9kYrqWuXtHzPwa4RnlsblV0AbO7MJ4y6p2mj7RDtGpjlGpqeX1dW0dV9Utj4grZ9SWmsdmgIFVLfzqtmFpxbVtR6QNuDQdCisa33gEMTAr84goCFi5FnV2smNc2IU0JA0982qaMitavJPzr/vEHRABkig+CThfoT6Vz31fzi5cyH9bbHvXYJp3sVWYe7lI9Q/d6ymXzkz9X+a5E4WNPbwbaPQZyWZ5Q1OUelR2c/dYzMP3TJkFNQENrHIr4Q26z9xzywq+3lsXvkDxyBeHVfr0GRa6k+GZke286oBr+KqbdkvrQ9Rv6JTCLBJp6CmmLFXVUsXF86JBY3dJ6V/TsFKzjbAJyGnvKnDPiINmgServ7HnkGoH6H+5eLzwtouQv3UBjo2NqasZzbTal5YAL+ck0tA/ZwYx8TCasuQJE2PSGnLhweBZX3A5szg/kVVLCgMHY+qlLlfR+8AsI6BS5lFSNMsKKG2/eVFZev9Uvppz2ujsp8flDGg51M/ctsw7XltSEbRDlGtGxiHovpWJZD6GSHqb+26iXE8eMvQOCAeZeCxnVeNFYWxCEoElp7Im09PbJ1HKyPUT92zVsHxfDZymIfdLNktH4r1f4KdO5dMlw9WhHj9H4RolgsWnfpR2GtqtjlVTSklNQ8Tc73ishwj0/m0XVmEMDG55SkltcxCGODtXTjnsqZ27/icO9YBur5PnpU3NHX2XlS23ieln1JSU9fe4xCZpuYW9ji1sL79pbS5H3RLeXOHiksotPW/hKl3Q+crLpzTLjFg+5D0sjoFhyBFx+CnBZUBKfngprkf3u18FqCgnxDqXwV0T63Cl0b9n2Dnzg92kiW7AMnwWQjUsNRvaOu86eQnSO6E0lVFjL3Sn9fZR6QqO4doekTE5lckFVWfU7DS9o42CXgKpbeyi2jdtvIPySgOfVaM9Yq6ZeXv+uTZMTlgKUNiUbVnXLZJ4NOo7LLIrOf3gJ2rtZkENc8pWjlEpgkZuAMZw0KY6xoO7rGZ55WsmAQx5xQtLYOT/jcbHJ5Zah+RekHJajJTdmHz+Qj1U/PmKjhGqH9Zx69mp7YPUv/o2JiSrikS8IGFcTbqR01d+gtbwiwngZlVNM4jNjM+v3KfpB7w1jNBDSWn4OJ6YNU0ixBmB7jugQ18Yxqw6E9c56CMPjv4Ei52cJU1uENGjXFg/A4RrQPS+nskgBfnji9rEMaxi2ixAwtoxpeq7QA3b4CeN+zCuAPSBgel9dmhF6gtYLdOagXHqV/fbBWwHqLCPHfupDaI5XYMBXwuomReD7yZ0sAtL9qviMjRXbvFLqq93MSenzzj1H9FsLvn1RRloa+jY2PKumabzwqxCmPZVovW88Nq+l2QqfBK07yqxcLZc/MpHlYU8LqIBX1A2pW1fpRb1eQdn63rF2MTmpJYVGUXngrtIE39gjZwbx9gaSS0gBnasPboHZPY/AqDR7HQV+pEHcrSZUhC6q9gUcBLHMF1cDBrmOetFED9ZwTVDMxhLQ05ueIQmPT6I+KS/jpwmVlAdd7GsSxuFNXeelnqEvrWdOpva++8KiK37Yr0aqJ+uuuy+6/OSP1jY2Pa5vabTvGxojGrRutPZWbsgKlICsoqdXa/pPRbz8DQbSe5WIQ0Fl4LqzBuh6gWv66bgX+seVCC0aN4STPfOb4kixWN2y2pK27mw4FxgFYvL1yehZUAvOV480keQ1tnClbIwYpGYJL6E9Oztp+8ycSnvDATWZivtEBXS0SLTVR783lR3luKb96+m9IwL1/18t9S2HxehF1UZ2XrOIESu6jO1itSZ/glX/X1T1EW+orH4518AzYeuc6C0kSof0qjswprbTqLvquhT+0lpOcUsJ/jZuRVmnLx/L6yoMGXjKKBZwCwu5wQsM/HXKkc3P8D2Cpjork/54GoNrOAGt0JjpAn8bCWhpxccQhMUn9pRdVxLjH6m/dWdGSAVVhrw3EurKn1++HhKY3x/v0wxshy61lBVqAvLej1WJ+zE1ITgaj2xlP8t1S1pz/nIN2JRGJOYTHr2ZsMPApsq+WB96nAZxbS2HCUw97Tj0gkUkylf+ANh+idTWdRbCKfJio4Hsyh3v6IugVnOYb25f9EkfqFgiaqveWSxAlukRcdnRSskIMVjcAk9b8eeCOnobvhFN9cvZJZrPZz/SSqzcjzgO44R2JaJnV/prRQdEIyyzleRh7F1eD4i2oz8alsOHQ1ICwaj8dTdJxy0Pd6QPCO8oZT/KzTd3X/XM20DOplF9Wmu3774FXBwtIyasSIJFJgRMzWo1fpb95HHpbQA4NdVIeRT2nDoasOXv5jY2PUcCHHKxeBSeonk8kxSams57i235D7VC7PQn2Nj+IIUSAcuf4Ej+h99Z5XfbBN8rK3V+CWwkYg9o1d+QEQ3MYzQhyid1petMMqC50kEAgxSWmMJ2/QXb+9pM3xUW23tBezi+ow8SltPMKhZ+k4Oo3LBt6+U9Qx2XDkGgOXPJsIsL3+l4sboLs2E5/y+qOcEgqaL1/1kUikWYwN+WkFIUBD/W8HB7GmNhuPXAddHu2VFPkR1WZFa246hz50XSgrv2gmAyWRSOm5+QeuCmw6h17J4W8dVjR26yVx9nNcTxJTYcc31CY4OPTewtlz69FrdNdkWNEY0Jn9YukMUJyB+8H6Ixwi91Tbu7qpgYKOSSRSR/fLBzjDzUeubbkkzsSnzCqMZRfT+dI+wKbTAqrbrspsPHJd9IFGbWPzTN1qOobImeWPAA31k8nkrpc9yrommw9f3XxJnFlQDXD/RZf7h1UYx8Atv/44zyEOVERc0tjM0Q8ymTyGx0cnphy6LvT3MS56rvtAdGvZK0gjoQiOkUdx4yn+nRd4fILChkdG5mJkA2/eWrt6s5zhXH+Cd/sNWaBloXf4fTH/gjnvmgxc8pvOCW8+ck1WTae+uWUW6F719Tn7PjonIL3x0JX1x7k3nRH6sj5nURtO8K0/ePX4TRFzJ/e2jk6E92exlpX401TqJ5PJr/r63R4GHeNEbzpyfdMp/s3nhTefF9l8TngZfrZcEN18DrXpBDfd8etSyticotKxsRmj3pTmGcPjcwpLJBQ0tx+/vukE96azqC0XlqmC1JhvuSC66Rx600nerUevCdxWTMnMmSPvQ4oPvX+fnJlzS1Wb7RzX1mM3tpzg2nKC80v63NxynJP+BMcN8bv+oVEvX/V+kMtGR8dqG5vDYp4a2bqoGVio6VsA/34JH30LVX0LfWunR6FRFdV174fn5F5Q+hdysCIQgKF+Mpk8Ojra2NLqHxYlp6nPKXn/hoTcDYl7y+3DIX73upicwB0lPSun9Oy8/oEB4pwDkUQise/1QHpOvr61s6CsEof4clSQFvC7HOJyvLcUsKY2T1Mzenr7PhjnmW5/RCJx4M3bqrr66ITkhyGRX9on5El8XnFpT2/f7OPCKbgRCMTh4ZHBofeDQ0Pgv++/gH+HBoeG3g8P4/GEKWggX1cNAvDUTyaTSSQSgUAYHR0bHhlZzp+RkdGxMfw8eJBMJhOJxDE8fmRkdDkrSCvb6NjYGJFI/KDHOouBAi1LJBK+wL+F4TYLpMhPCAIrDoEZqX/FaYIIjCCAIIAggCAwRwQQ6p8jUMhlCAIIAggCqwcBhPpXT1simiAIIAggCMwRAYT65wgUchmCAIIAgsDqQQCh/tXTlogmCAIIAggCc0QAof45AoVchiCAIIAgsHoQQKh/9bQlogmCAIIAgsAcEUCof45AIZchCCAIIAisHgQQ6l89bYlogiCAIIAgMEcEEOqfI1DIZQgCCAIIAqsHAYT6V09bIpogCCAIIAjMEQGE+ucIFHHg9ds5XopchiCw7BEgvn09gOzNtuybaREFpKX+0ddd7W3Uf+09g8Th+lhXl6iqwUWUYrLokf7O9vaOvqHJMzMdEYd7GkvzCio7ByffrDrTtQs9P1LpxLkbHTh7MYNtNS1vp8hC7IjSuWWRvjTYzS7eAn8l1AeoyzktsJCZboeDbqZrF+88pGL+gitYcKMPplvI4MLbPpKZQRDnLPy7SMk91+3Kpr7Aes73T1y4PJpuQppp/y+4LaaVCJyYbKDZ1J+p7ol7xksByoOhDtiKP3yS0JFsKcd3/YZyaMcULpp6Lw31j2Yp0n/9D+q/f55xaA4T/vWrNT9wByw+fxH7oiW3fL1mzY+8j2fn/uEKL4m9f/z0NxM7y6ZffmXhtSt4Byg2XBHpHFz4eqqOC/0+nIvZwygW3j0rlMROx3PfM6nk0MpBqNDdu/aiK/zrIhcq14Lv/xi8Rp89oP+Zf8FVwhVADR3c70t1DlIxiLa6j8Fo/M4FN3qf68XvduFKP/zmCSpRx0GkOvOBQ2JniAjjLtXM6T3tI1SeaLrRD1S2tD9TKbDgtoCVfKKBZlcfvu6Je8jk8VLIk2cWTGHElw+5fvvzjLpXaHrth/gahvq/YRHQNxv/swwqHRyujXNbEq9/IEmO/ps1//jHh6if2Opw7sfNIiGdgFtE7EtX3fMjuybgrPW4XFh70Kj2I70l2MadPElsc77012mbxg+WSng38A66aFIO+NafLPzzHk3K+WE5FpH6yeRJ6D4syOJdAUv9H4PRuGgLbvQJZvk4VT8aRGKr08W/zky37I9S+aNr/Til5nU1lQILbgtYASYbaDb1Z6p74p4J6qe2fyrRYWv+wEnAhH9Dhc1pLAdD/f+64kHtOONLrXmPH7tmkAU82QldSQZCJ3cx7zgpjFUTPnHssm7G6FCMyqkjJyS8mwlk8kgS5uzREyKutUPggYS2gdixnZfNnuPJgxWPVG8eYWVg2X9ewiK9azqRDmYos/577d/rf/5qnPqJbb4CdH/vuB32coq7jc9TY/n2qNkEGRNaowwUHVLStC8epP/56x+37jmpEDFAJuNbYk2kOQ6x7TjCqfQICFcRmrwkLsmbm0uc28PCdphTI7wZ8lXwLbG6Qid3MjLuOiWk+6R5iq9FaLQ8+fN5R2D0NJyqdVXQrgy4gNDkLXFeIaIfaImRZ3rX+axLeyMVz4i514/QyNFXobv3u1MaTooch9iYdp+X9a2c+sKj6bUTalyEz6g8gR7aI4ma51GOlUCdb0vdZS/uZWU7xKlsoytyEZMEFjXtLCDSNN3BUzRa0so5AH8T+V2Z551L+1jZDt54oMK1eZrXP1142HIA5M/I6hkIHt55w9RN7RLaqQpCeSBG9QLaqaoPgg4066GqQFXOwyz0zPsuyzrn9YFNPwd1pnQJYk+mvRznyV1MLPuvyHmWAGNCQIjzSi6+yjcOszFTNcVUFam8/rlhNE1ioMtPa/SZqh9tjtYWOMHOyHrgoqTVM8jUJ5mFDPczjCmQyeQBEEQQh7niRex2v/rzAYMqqs44TWV4AShwQ7XWEwD1Lty3sJa5sJeJfue5O36FBZ53LuxmoGc/jjLP6CXO1P2oTcOWDKPu23iNafZCgDPwcZGmKADbFrBGSlEJtJQJc7WtgauM0kAT6pPJcBYH2MGx+ya3Lu5lZT/MqR7WBBLO+D2TXv9409FQxwNvn3tnBe3LwX4CgnTLv31SROB1WtMMZyRV6/yOv7/95x8sh0/Jh4HcRHPHlC8w1P/NIdXIJPAvOb2ihziafp/u669+F4seJhOqzE98v2bNt5uPcnIc3vjtmn989Ss6fPit17V//eObfXqVBDJ5KIB77ZpvdmCK3wAH//jHmq/+9ePvx/SK2oNR67/+au3207w3D2/411drDxuBDDopzHA+bs9/1h7Aucszfk2hfj9B+g277oRPpX7ySKnxsXU/7UTpB+a0U8arbzuqs3WP/WeXUnxF62viUJb6zt/2PwguaaiMwZ34jV4ueRCwgm/W7pRySy7IizK4/Pd3e7RL8GRiq+P5dXRo78KmhmwXvq3rztg1UfUEMnnAn+vn8cE3scPp/Lpj5o0EMrHF5tS3//cLb8BrMhlfoMH+Fyr03cQznEaOMaDOb5nQjsmlz1OsONb/zOkzqTMwZoGpHV+oyfbdVU+AjcnkIf+bPzKr5o6SX0eKbfhx1y2vjIKsENz5P75eyx0wRIY7SybD6A5Tz2savOBuIvdHim1ct0fWO6MwK0z74l9fr6MN+MAUSoAtB0T+WyYB08AnmdUNntd/3asD2vRAsOAfTIpZoxPQkckD8be3//ewckhJQ3Wy2dX1f/MHzlUd6kYjdvlw/rbppkNWU1tV1IM963ZiC/FkUIj/MAtTNUUPGUZFKuon07QlEVa36RL3wDY6TPVkMvldmgLLzztlfHKrq565ijL/sgeXP0LhBPwMP8OYAnniJsBkppk+rJkB1gUI9eNltx4qm6RVGV4+qssnSBAo6Z8/HVUJyi0vidU79/u//7Ppkv6TwrLsh9Jsa9k1C8bxn9b9QFjGTaMWrjZi93R7ma4hVXCDVoHx8qd0wOkFUKkEWcqETG+nXzs4EarBUw5mtrh/buezisnNi7O8uWXtLlzB6ERDlcIcUIveW2954nuIeIgt1qd+2KsLPQbGBYWDivy2vdwXvfE3LpfSqtZ+6g5BrR3lGIb6J2P9X/2MChuepH5CtcH+b9Z8AwkxknR70/99gPr/7y/+ACAqQ2y3P/vtmm/26pQN4/Gvw4T/+OqbHdhiyPEDJRktNTi09ttdmrkDOcpME9RPkRHmgPi69KEG78GN3/9zHd1pGcdswK2gDvgMRYn+tVEqDnouDEWL/b1NLgWwgrUXXXvB4ggNpkf+sxNXgifUGB/6juV2VPMg8OSuyMiq6aceZBAq9fetveAMdQ5Co/mxX6559hA6HC9u5xQ4tRkV8pbQbHnyt5sP+yesgFYOoM7vzjtBD6+hQJ6fWFRptIGrHZb6h8JQ//0THQ4lGQHDunUA9cOdJcPqDqsl1egS7qa+YIFf/xaLAqdRyDABHzjh4coZoUGB3OfP/ftenTI8+W0Y+u8dACtQqH8wROC/W+8kQ+NVfHUAFvPoI9SZRHakv72le5BIHO7rbI6/z/TdZfd+sENPaYo88uB0Fampn8amYCWBkbh6BK7RaTCYsITBUKHf/haLGk8dex0k8MdG6fiRCTzw8D/DNvoEkZDhpCTDtRSI1jsfju/ZNAupuiKNyvACTOI8UWspHuxcE/7KOz/OH7beTQVHpcAQ/QdOv0EQf5juR4XVDLVNsxdYG6MWisquYWGHKYD6dtp7YJiE0kCTBzNa3Lnxzk9ssz21lk2D2topZk85oKYwYqv92XW7caV4Yrvj+XW0YzPyDFCRR1Lltv0FeOlz+IOh/m/23X8UDv5FxBR2Unn9Iyl3tvzfV7+JRgElQ0+E2b3+r1nU8gCrAmiDdvr4qz8lnlDkI1Rbnvrxq//sROuamcif+eP/1vx7t6h55HhMYFYdiINNaa53Dv667phpObXNEtusT/7zm29/+BH6++H77/9Ah4DWSZlyHQ5H//a3ROwImfyu1OvOWcZf1/3JdlbcMLqRNiKDL9Rk/x6wXPAPX66z9y90aJPbte1iETX257eKRbb7cv55yaWLOGEFwHWTpkdT53Co4H8ZFKGSKP9Orx2O+odfOp37bg/kK0N4AtRPhDsLqzu8lpNywt0U1Gh76rv9E+EAGOqHKRSunJBhGhTI5IFQ1N97tcteR4hsAB8BFOiIrVYn1h4zpxl2wZYIUzMFUOCA2J2kz7V76zb2g8dPHdz2w7+BVqcRAmqKLGLHdBVnpH44SYJgJIarCXKwKRP+45ZAaDI/9t0h4/pxBw3/XGv3dxddeifwGIH9uQeu0Se9fjgpgeEFvJEPBfKso3/wjHaWlmIWM8lHhTW11792gvqHHvP+zAIMVYHISglu59prXm9pUSFPdD+qVpmxtin2AqdhCIVMgDopCsDDDlcAlUo0ksJdGzLRQBSnBf9hiyMPR4v/9SfAnRSin35AIzqx0+3Kz7txJe1uV345YkIzgzkjVAuk/imx/kmvH6DBb9Z8d9kNcGInqf+dD8e/13wD8RJtwGeC+gGb/mbNN3vkQ1LTgL/U1NTsGiiMC0A+HCb081eTYw3gaM13N/0poRzqZgH6dVuIOgoT0TXhnI/mqjD954QVTZP3eVz5gUU1j8akqayMTCb3ul1aS6+YNUoc6u/uGyKQCQMNqY4oxh/3aFEPR8jA6GDtWceJ7J7RXFU2ehHZa3SAv99ic2a7iKrw1lNWzUSK/0NrejR1wlA/XO34EuwO0E8FipoI+LwL4P5p+/10SCGK1w93lgynO1w9NHYGd9OA740fGRTBOR7ocTMl1g9XKFw5NH0JUGrwicTmPWrmIpuPGNcAtEfpA/2e135gpzihwy8b6zs/Qh2KnYymyWorQgAADTRJREFU3aP79bIzMPlExpfidn03E/WTYVSckfphJYGR+B1so8Oe7PO89iOjcva4mQ4nyGz8VTB0aAIPPPzPsI0+ASIZVkq4lgLQInY5nP1uj/aU4Oskc8ILQMF5sulovf45UP9E96OGZcbaptgLrI1RCzWpAK3pTXTADxRALRMsnJQGohx82OLIr72v/0AH9GCKtU8/oOmSZGKPL+d/d91Xv/bbcfMG2vjNTFAtFvWTh9Pub/96zT+3Xte0tVa7vPmfa8CAz0iy7Ob/W/PdLnFzR1OZw7989Q9KrH+C+sn4Yq093675vz+O3zFztNWVOMpyyaaMyrsmjg4PD4F/A+kKDF+v+YH7Yf8ogdgdef/Y3otaydSTzkALD6U/YFy38054E/BwIPbn6h5f95doJDDT5XXte3YMQN2EZqeLP2+46V49RCYTX+faqZmn9QIt+u8t6CAgX/ptgc7hHzZKxb4jvwtD//EXpycwA0Ps9OH8bQMw4qb6G34i/jeDQubEQ2QkRW7Lv//1Bx8Q5Sc0WZ78ae26A/rgPBmlIWnkoE7unLA8qtLhaid2u176fptM3GsyebQtXIL+X0Csn9jmcumnjby+jaNkwstExd3ffQ8EfODOwuoOVw+1nLA34Vscz6/bLPCoGU8m9CQp71k7JdYPVygc8ESavgRoP5wku3Xdj/89ZQVN1VOgIzTZn/uJXiKyk0Am9GbhDv96zBRWMriaqVAdiZH4++dLDg2jxKGWOLVDP/77vNNLOBLIIhOnqziF+idtClYSGIlrRuEanQaDCUsgtnte/+8Gbu+GUTJ5qMLu8h/rhcP6JlgcGOrD/Qzb6BM3wZr+jEY+mq3E9JtgCFWkHEBxUmV4AaiQnuCxOVL/9O5HDcvMtdHaC6yNUQs1qQBcq8NDRHU/tUywjU7RmnIAZ3Gg2f/zv+ctit8Sye8K9Y+tWy8OxPYo1j79gBp7QKD+x/z//fe/152yohkIA6wHaxnkhQZ8ZvT6gUzKTKPLm779as1Xa+n3MK/76qtfhSOGyfgqN+5t365Zs+affx27tP+Xr6ZTP5k80hCqfHbL2q/X/GPN1z9sv6yVQHHaqTAnk0epYv2EBruz6/71F4/39LUJQxV+cueY//7v73/9+dPaX5g5tOPAawj1Tpd/+3bdBi63DiKh9Ynm+a0//bpx2/rf1h++E9QIWue/6U+eY96w8e+f1v5xTC0elAHfFCR3+O+f/9hG9/fPf+6V9K2hDXyS+wP5/jo4EfYgk4eixf/6idMXnDEgNJgd/W7CS6U0JJk8KUcbHAtQawxb++tU3JHf/rPujz9/pzt1bsc6aOw8WvtQfMe6b3/85Ze/953d/9sP4DQvefpZYPZumu5k2Hom5eyAvWm89P+s+/W/Gw7dPLttitc/Q6HTK6fpS6D2wLjlx3MObdDIjQo6fGOI/PENv/y5/vefft+NdgOXHM1VnUlcRytd+ei//9f3P/7wxwEUJ/u37JqFcCSQBQQjQVipVJxC/VQYEeGAJU+XmEbdCZaHPQm4Gwm4C1t/+X3j+l9+pruimwLOCo3jgZ/hZ/hGh24CMJiGFxm+pciEGqPDv93wnppGQa0yrHyTQE/w2Fypf1r3o4EFHg2gNlp7ma4hbZ+lUgCYcp8aZ4OHaFIpWpngKqM0EOUAxuJATH7cz83L9vsvP6/99vejyjEgS43fA/cMoKaODkCgt+HCf6w9bdsyEeGYFBK+Yebt9U8WPNMRoTkjsay3r7vvXY35ie/WfMMKzFsAf8T/b+/cY6Mo4jgegSZgkRYooK0QoICQSCqiEiKBVBJqeFVifACpghVTlJJIwIAVQtBgqJGHJiCFEmME/gAEX5gIqTwkKJiAEaVG0NK0XHvp4+wj183d5szc3T5m57d7u7a37JXv/dPZ3Xn85jN73+7tzn4n2ORrCooR8hWFOxpr61u4q2o+g2FLliR+UPnjoYDvdksX16gcbLrd0K4WCrX56pRNZURlqbXBb3gFmAVW6+/kf1XFG+v4YfWkyWuJV1/4YPgtQxz8QeMW1XqorcHHk+poaw+HAo3+jnDroeeGjio5FeUo7FUr1/c9tpNoxxinWCgSCjQ2dXKQ1SZYgqiU3WfRgeey29qQWhqaubu3ZI10y0oD7BmvcZiVY8a/1l20wShCRWxsxXw7FPDVN5t/e4TD5oOutSGOgJFX108bHpnw2snYVDKtIEsZuiwEwOe2tWX19eMrsNua2EOtHkMHtAP6lFUF+nwsbSOv6RkXamu0eyby7OXainnZBbvjV0jGkFhU1icOUULbxT3m1XabpFq/KHqgb/+s8Xl5ozP73dP3/gV7lUdUJgW8tFs59xzHJDd++WrejE0X76iHj3Tp7anjC9bsOPDZnrL5YzMfLbvAbnfRex33EAVSiUDPDHrH5a1P5S09XGf+T71nmfzvr1/PhpEytQX++P7TTfNGPbjkiD85Q+RM+iNy89VjOzeuenlJUUnZnqoa+9fvHiBuZqlhJ7TOXytWrD9qJ2fy8gT/OV2x5c3iouWlWw5eaVVOB3pv8qJAzR4g0AOD3v71xuKPL7t4NdOdr58HkLsdQrjmUOnCRSs/+jE2bz0JzTuU/iREgCpBAARAAARcJgDpdxk4mgMBEACBO08A0n/nxwARgAAIgIDLBKLSL7X66puib1AFm+s5w/46bW5HuK3u918uX6sNqNNnuFClW6e2ly4unL9o2dqKi9HXtWJ21Fym5G70lN+6kyjtOXc7qdFh3u7dQpV937zbO9YTcIgN2UHgLifApJ9Nmk1n71pHgideGpaWPjRb/YwuOhRg0/kvfLBowuCMnIcenjAic2T+WydqDNMgQ1c2Tx2UW7hpd8WuzWt3VEXni2kTjV1izPox5EXDvOwkt61M7FU8t5VXv5LcrFZ99yZOhKu3TlOnPWuVIgUCINDLCQjSPyKn+Ft+4o7ccGTpyOH5W85HnzUH/6x4JjtrQSU/Kcy/9+n7Hn+PeXdqn7tK+vWe2xoCF1KQfhcgowkQ6HUEEku/XP9JQcakdRfV61npbNmMKa+fiBk6snd6/tq3bPq4zH6ZuY/NKj5w49bBktlvsLUMddJv10BcxUu5Xzv3W2fVCW7q7GeOYHUd9ei29BtnntmE279y1a94bjOfUvte8VRwBCsVC9EdJv2COTx72cO4XAEJQ3fV33L+/efnvLL3tyAryln765pHEgRAoHcQSCz90pnVuQPnHzAa6ei63+W/cfadafdOXX/62t/+zhvlT6bP3K6XftHx2tRAPFarufu1Q7910v+dtLpmCmrpN84yiG7/6ovsasJ27DIRnJ9YZ0AHmigR9ScwrAjgpzzbOygzfH9c+pvaLpXPzh79bGW1lGBo9NEgDQIgkLIEBOkf1qdP337xz4D8HTUycyYauoR3RTV2V67dlT8wtm4Ws7rkpZ9yxzY1EI/VbOp+zVvfJ/RbJ9zUTayuo/dNFNNZym88mkFw+1cVX0vYjV0igrv+r+gOrmNNlIhKv2BDTyCvihClr0elf/aG8oUjcwp2Xo0+6U8wNLpwkAQBEEhZAoL0C/f6pTOlY9PnVVqu92Ul/ZTjtbmBeAxkD/mtU/7vJlbXnPRTprNx6Y8vsK7YjWuKr975sRt7kLB6N2EVP7uo7pCuZFQ1R+nS1VunpaWl9U9Ln7ymSvlhZ+LtnrLnOAIHARAQCCSWfrlh39yMMStPRS8JWfmu02umTFxxXL3XzxyHrK76KXdsMwPxWHyJ3a9jfogXEvmtE27qEdrq2qH0K3bjovTbjl0igmunWGljRpQgpZ82GSdKt7Or/gETV508u21WVu6yY8zK1HpotGCQAgEQSGECiaU/Emn+qnjM4CfWfVfPXGRbLpXPGZ79wmHO6dVS+gl7bVMD8RhJyv2a1rgEfuuEm7qJ1bUt6RftxkXpp2LnDevj/7YkIrhqSVxnQHdyESVoLATypghRulp9zBu+WVmYnV24/2aY9MKXW66d+/mW0UxTFxqSIAACKUXAjvSzeSWfl0zPycgYNmLIoOFTFn94zmAmZyn9DgzEFXSE+zWtcQn91kU3ddoE3Z70C3bjovRHiNhjbubK2pCK9EcIq3eSlUKFzdsR7Oy5G1HKjyGiGvYiHlFam9cv+44vH5c1c9vVDnEBA9m3b25mjm5NTV1ISIIACKQgASb9dj+hQIOvVZ3jabeUmk90vDYaiKtZWcLU/ZrLFduw9luPkG7qDq2uFYml3P6FiJzETgdnaXdv2xxeRM6mthJm+EIPhKEJWa6cIJTHDhAAAU8TcCL9nu5IsoNTpD/Z7aB+EAABEEg+AUi/Tcbd88qx2QiygQAIgIArBCD9rmBGIyAAAiDgJQKQfi+NBmIBARAAAVcIQPpdwYxGQAAEQMBLBCD9XhoNxAICIAACrhCA9LuCGY2AAAiAgJcIQPq9NBqIBQRAAARcIQDpdwUzGgEBEAABLxGA9HtpNBALCIAACLhCANLvCmY0AgIgAAJeIgDp99JoIBYQAAEQcIXAfwJyuce+sWYvAAAAAElFTkSuQmCC;" vertex="1" parent="1">
          <mxGeometry x="170" y="180" width="510" height="217" as="geometry" />
        </mxCell>
        <mxCell id="nhPQqnQUPSQ_pBwds0je-5" style="rounded=0;orthogonalLoop=1;jettySize=auto;html=1;exitX=0.5;exitY=1;exitDx=0;exitDy=0;entryX=0.5;entryY=0;entryDx=0;entryDy=0;" edge="1" parent="1" source="nhPQqnQUPSQ_pBwds0je-2" target="nhPQqnQUPSQ_pBwds0je-3">
          <mxGeometry relative="1" as="geometry" />
        </mxCell>
        <mxCell id="nhPQqnQUPSQ_pBwds0je-6" style="rounded=0;orthogonalLoop=1;jettySize=auto;html=1;exitX=0.5;exitY=1;exitDx=0;exitDy=0;entryX=0.5;entryY=0;entryDx=0;entryDy=0;" edge="1" parent="1" source="nhPQqnQUPSQ_pBwds0je-2" target="nhPQqnQUPSQ_pBwds0je-4">
          <mxGeometry relative="1" as="geometry" />
        </mxCell>
        <mxCell id="nhPQqnQUPSQ_pBwds0je-12" style="edgeStyle=orthogonalEdgeStyle;rounded=0;orthogonalLoop=1;jettySize=auto;html=1;exitX=1;exitY=0.5;exitDx=0;exitDy=0;" edge="1" parent="1" source="nhPQqnQUPSQ_pBwds0je-2" target="nhPQqnQUPSQ_pBwds0je-9">
          <mxGeometry relative="1" as="geometry" />
        </mxCell>
        <mxCell id="nhPQqnQUPSQ_pBwds0je-2" value="IFC validation" style="rounded=1;whiteSpace=wrap;html=1;fillColor=#2d5f7f;gradientColor=#2d5f7f;strokeColor=#6c8ebf;fontColor=#ffffff;fontSize=15;" vertex="1" parent="1">
          <mxGeometry x="300" y="690" width="120" height="60" as="geometry" />
        </mxCell>
        <mxCell id="nhPQqnQUPSQ_pBwds0je-3" value="bSDD" style="rounded=1;whiteSpace=wrap;html=1;fillColor=#2d5f7f;gradientColor=#2d5f7f;strokeColor=#6c8ebf;fontColor=#ffffff;" vertex="1" parent="1">
          <mxGeometry x="290" y="780" width="60" height="30" as="geometry" />
        </mxCell>
        <mxCell id="nhPQqnQUPSQ_pBwds0je-4" value="IDS" style="rounded=1;whiteSpace=wrap;html=1;fillColor=#2d5f7f;gradientColor=#2d5f7f;strokeColor=#6c8ebf;fontColor=#ffffff;" vertex="1" parent="1">
          <mxGeometry x="370" y="780" width="60" height="30" as="geometry" />
        </mxCell>
        <mxCell id="nhPQqnQUPSQ_pBwds0je-7" style="rounded=0;orthogonalLoop=1;jettySize=auto;html=1;exitX=0.5;exitY=1;exitDx=0;exitDy=0;entryX=0.5;entryY=0;entryDx=0;entryDy=0;" edge="1" parent="1" source="nhPQqnQUPSQ_pBwds0je-9" target="nhPQqnQUPSQ_pBwds0je-10">
          <mxGeometry relative="1" as="geometry" />
        </mxCell>
        <mxCell id="nhPQqnQUPSQ_pBwds0je-8" style="rounded=0;orthogonalLoop=1;jettySize=auto;html=1;exitX=0.5;exitY=1;exitDx=0;exitDy=0;entryX=0.5;entryY=0;entryDx=0;entryDy=0;" edge="1" parent="1" source="nhPQqnQUPSQ_pBwds0je-9" target="nhPQqnQUPSQ_pBwds0je-11">
          <mxGeometry relative="1" as="geometry" />
        </mxCell>
        <mxCell id="nhPQqnQUPSQ_pBwds0je-16" style="edgeStyle=orthogonalEdgeStyle;rounded=0;orthogonalLoop=1;jettySize=auto;html=1;exitX=1;exitY=0.5;exitDx=0;exitDy=0;" edge="1" parent="1" source="nhPQqnQUPSQ_pBwds0je-9" target="nhPQqnQUPSQ_pBwds0je-13">
          <mxGeometry relative="1" as="geometry" />
        </mxCell>
        <mxCell id="nhPQqnQUPSQ_pBwds0je-9" value="Algorithm-based checking" style="rounded=1;whiteSpace=wrap;html=1;fillColor=#2d5f7f;gradientColor=#2d5f7f;strokeColor=#6c8ebf;fontColor=#ffffff;fontSize=15;" vertex="1" parent="1">
          <mxGeometry x="470" y="690" width="120" height="60" as="geometry" />
        </mxCell>
        <mxCell id="nhPQqnQUPSQ_pBwds0je-10" value="Graphs" style="rounded=1;whiteSpace=wrap;html=1;fillColor=#2d5f7f;gradientColor=#2d5f7f;strokeColor=#6c8ebf;fontColor=#ffffff;" vertex="1" parent="1">
          <mxGeometry x="460" y="780" width="60" height="30" as="geometry" />
        </mxCell>
        <mxCell id="nhPQqnQUPSQ_pBwds0je-11" value="Other" style="rounded=1;whiteSpace=wrap;html=1;fillColor=#2d5f7f;gradientColor=#2d5f7f;strokeColor=#6c8ebf;fontColor=#ffffff;" vertex="1" parent="1">
          <mxGeometry x="540" y="780" width="60" height="30" as="geometry" />
        </mxCell>
        <mxCell id="nhPQqnQUPSQ_pBwds0je-17" style="rounded=0;orthogonalLoop=1;jettySize=auto;html=1;exitX=0.5;exitY=1;exitDx=0;exitDy=0;entryX=0.5;entryY=0;entryDx=0;entryDy=0;" edge="1" parent="1" source="nhPQqnQUPSQ_pBwds0je-13" target="nhPQqnQUPSQ_pBwds0je-14">
          <mxGeometry relative="1" as="geometry" />
        </mxCell>
        <mxCell id="nhPQqnQUPSQ_pBwds0je-19" style="rounded=0;orthogonalLoop=1;jettySize=auto;html=1;exitX=0.5;exitY=1;exitDx=0;exitDy=0;entryX=0.5;entryY=0;entryDx=0;entryDy=0;" edge="1" parent="1" source="nhPQqnQUPSQ_pBwds0je-13" target="nhPQqnQUPSQ_pBwds0je-15">
          <mxGeometry relative="1" as="geometry" />
        </mxCell>
        <mxCell id="nhPQqnQUPSQ_pBwds0je-13" value="Visual human checks" style="rounded=1;whiteSpace=wrap;html=1;fillColor=#2d5f7f;gradientColor=#2d5f7f;strokeColor=#6c8ebf;fontColor=#ffffff;fontSize=15;" vertex="1" parent="1">
          <mxGeometry x="640" y="690" width="120" height="60" as="geometry" />
        </mxCell>
        <mxCell id="nhPQqnQUPSQ_pBwds0je-14" value="BCF" style="rounded=1;whiteSpace=wrap;html=1;fillColor=#2d5f7f;gradientColor=#2d5f7f;strokeColor=#6c8ebf;fontColor=#ffffff;" vertex="1" parent="1">
          <mxGeometry x="630" y="780" width="60" height="30" as="geometry" />
        </mxCell>
        <mxCell id="nhPQqnQUPSQ_pBwds0je-15" value="Other" style="rounded=1;whiteSpace=wrap;html=1;fillColor=#2d5f7f;gradientColor=#2d5f7f;strokeColor=#6c8ebf;fontColor=#ffffff;" vertex="1" parent="1">
          <mxGeometry x="710" y="780" width="60" height="30" as="geometry" />
        </mxCell>
        <mxCell id="nhPQqnQUPSQ_pBwds0je-20" value="Graphs" style="rounded=1;whiteSpace=wrap;html=1;fillColor=#2d5f7f;gradientColor=#2d5f7f;strokeColor=#6c8ebf;fontColor=#ffffff;" vertex="1" parent="1">
          <mxGeometry x="370" y="550" width="60" height="30" as="geometry" />
        </mxCell>
        <mxCell id="nhPQqnQUPSQ_pBwds0je-21" value="bSDD" style="rounded=1;whiteSpace=wrap;html=1;fillColor=#2d5f7f;gradientColor=#2d5f7f;strokeColor=#6c8ebf;fontColor=#ffffff;" vertex="1" parent="1">
          <mxGeometry x="290" y="550" width="60" height="30" as="geometry" />
        </mxCell>
        <mxCell id="nhPQqnQUPSQ_pBwds0je-23" style="rounded=0;orthogonalLoop=1;jettySize=auto;html=1;exitX=0.5;exitY=1;exitDx=0;exitDy=0;entryX=0.5;entryY=0;entryDx=0;entryDy=0;" edge="1" parent="1" source="nhPQqnQUPSQ_pBwds0je-22" target="nhPQqnQUPSQ_pBwds0je-21">
          <mxGeometry relative="1" as="geometry" />
        </mxCell>
        <mxCell id="nhPQqnQUPSQ_pBwds0je-24" style="rounded=0;orthogonalLoop=1;jettySize=auto;html=1;exitX=0.5;exitY=1;exitDx=0;exitDy=0;entryX=0.5;entryY=0;entryDx=0;entryDy=0;" edge="1" parent="1" source="nhPQqnQUPSQ_pBwds0je-22" target="nhPQqnQUPSQ_pBwds0je-20">
          <mxGeometry relative="1" as="geometry" />
        </mxCell>
        <mxCell id="nhPQqnQUPSQ_pBwds0je-32" style="edgeStyle=orthogonalEdgeStyle;rounded=0;orthogonalLoop=1;jettySize=auto;html=1;exitX=1;exitY=0.5;exitDx=0;exitDy=0;entryX=0;entryY=0.5;entryDx=0;entryDy=0;" edge="1" parent="1" source="nhPQqnQUPSQ_pBwds0je-22" target="nhPQqnQUPSQ_pBwds0je-29">
          <mxGeometry relative="1" as="geometry" />
        </mxCell>
        <mxCell id="nhPQqnQUPSQ_pBwds0je-22" value="Query-based checking" style="rounded=1;whiteSpace=wrap;html=1;fillColor=#2d5f7f;gradientColor=#2d5f7f;strokeColor=#6c8ebf;fontColor=#ffffff;fontSize=15;" vertex="1" parent="1">
          <mxGeometry x="300" y="460" width="120" height="60" as="geometry" />
        </mxCell>
        <mxCell id="nhPQqnQUPSQ_pBwds0je-25" value="Model-focused analyses" style="rounded=0;whiteSpace=wrap;html=1;fillColor=#FFFFFF;gradientColor=#2d5f7f;strokeColor=#6c8ebf;fontColor=#ffffff;fontSize=15;" vertex="1" parent="1">
          <mxGeometry x="20" y="690" width="120" height="60" as="geometry" />
        </mxCell>
        <mxCell id="nhPQqnQUPSQ_pBwds0je-28" style="rounded=0;orthogonalLoop=1;jettySize=auto;html=1;exitX=0.5;exitY=1;exitDx=0;exitDy=0;entryX=0.5;entryY=0;entryDx=0;entryDy=0;" edge="1" parent="1" source="nhPQqnQUPSQ_pBwds0je-29" target="nhPQqnQUPSQ_pBwds0je-31">
          <mxGeometry relative="1" as="geometry" />
        </mxCell>
        <mxCell id="nhPQqnQUPSQ_pBwds0je-29" value="Visual human checks" style="rounded=1;whiteSpace=wrap;html=1;fillColor=#2d5f7f;gradientColor=#2d5f7f;strokeColor=#6c8ebf;fontColor=#ffffff;fontSize=15;" vertex="1" parent="1">
          <mxGeometry x="640" y="460" width="120" height="60" as="geometry" />
        </mxCell>
        <mxCell id="nhPQqnQUPSQ_pBwds0je-31" value="Other" style="rounded=1;whiteSpace=wrap;html=1;fillColor=#2d5f7f;gradientColor=#2d5f7f;strokeColor=#6c8ebf;fontColor=#ffffff;" vertex="1" parent="1">
          <mxGeometry x="710" y="550" width="60" height="30" as="geometry" />
        </mxCell>
        <mxCell id="nhPQqnQUPSQ_pBwds0je-33" value="Rule-focused analyses" style="rounded=0;whiteSpace=wrap;html=1;fillColor=#FFFFFF;gradientColor=#2d5f7f;strokeColor=#6c8ebf;fontColor=#ffffff;fontSize=15;" vertex="1" parent="1">
          <mxGeometry x="20" y="460" width="120" height="60" as="geometry" />
        </mxCell>
        <mxCell id="nhPQqnQUPSQ_pBwds0je-35" style="edgeStyle=orthogonalEdgeStyle;rounded=0;orthogonalLoop=1;jettySize=auto;html=1;exitX=1;exitY=0.5;exitDx=0;exitDy=0;entryX=0;entryY=0.5;entryDx=0;entryDy=0;" edge="1" parent="1" source="nhPQqnQUPSQ_pBwds0je-34" target="nhPQqnQUPSQ_pBwds0je-22">
          <mxGeometry relative="1" as="geometry" />
        </mxCell>
        <mxCell id="nhPQqnQUPSQ_pBwds0je-34" value="API" style="rounded=1;whiteSpace=wrap;html=1;fillColor=#2d5f7f;gradientColor=#2d5f7f;strokeColor=#6c8ebf;fontColor=#ffffff;" vertex="1" parent="1">
          <mxGeometry x="190" y="475" width="60" height="30" as="geometry" />
        </mxCell>
        <mxCell id="nhPQqnQUPSQ_pBwds0je-37" style="edgeStyle=orthogonalEdgeStyle;rounded=0;orthogonalLoop=1;jettySize=auto;html=1;exitX=1;exitY=0.5;exitDx=0;exitDy=0;entryX=0;entryY=0.5;entryDx=0;entryDy=0;" edge="1" parent="1" source="nhPQqnQUPSQ_pBwds0je-36" target="nhPQqnQUPSQ_pBwds0je-2">
          <mxGeometry relative="1" as="geometry" />
        </mxCell>
        <mxCell id="nhPQqnQUPSQ_pBwds0je-36" value="API" style="rounded=1;whiteSpace=wrap;html=1;fillColor=#2d5f7f;gradientColor=#2d5f7f;strokeColor=#6c8ebf;fontColor=#ffffff;" vertex="1" parent="1">
          <mxGeometry x="190" y="705" width="60" height="30" as="geometry" />
        </mxCell>
        <mxCell id="nhPQqnQUPSQ_pBwds0je-38" value="BIM Information reliability consequences for digital permit checking, (2024)&amp;nbsp;Berlo, Léon van, et al,&amp;nbsp;&lt;span style=&quot;white-space: normal;&quot;&gt;Joint CIB W78 Conference and buildingSMART International Summit&lt;/span&gt;" style="text;whiteSpace=wrap;html=1;fontSize=8;" vertex="1" parent="1">
          <mxGeometry x="700" y="347" width="180" height="50" as="geometry" />
        </mxCell>
      </root>
    </mxGraphModel>
  </diagram>
</mxfile>
